<?xml version="1.0" standalone="no"?>
<!DOCTYPE svg PUBLIC "-//W3C//DTD SVG 20010904//EN"
 "http://www.w3.org/TR/2001/REC-SVG-20010904/DTD/svg10.dtd">
<svg version="1.0" xmlns="http://www.w3.org/2000/svg"
 width="1536.000000pt" height="1331.000000pt" viewBox="0 0 1536.000000 1331.000000"
 preserveAspectRatio="xMidYMid meet">

<g transform="translate(0.000000,1331.000000) scale(0.100000,-0.100000)"
fill="#000000" stroke="none">
<path d="M7608 11748 c-7 -7 -35 -15 -63 -17 -27 -1 -51 -4 -52 -5 -1 0 9 -6
23 -13 13 -6 22 -7 18 -2 -3 5 2 9 11 9 9 0 13 -4 10 -10 -3 -5 -1 -10 4 -10
6 0 11 5 11 10 0 6 9 10 20 10 11 0 20 -4 20 -10 0 -5 6 -10 14 -10 8 0 18 -5
22 -12 4 -7 3 -8 -4 -4 -7 4 -12 1 -12 -9 0 -14 -2 -15 -14 -2 -12 12 -25 12
-68 4 -29 -5 -56 -13 -60 -16 -11 -10 -78 -1 -78 10 0 5 17 9 38 10 20 0 31 3
24 6 -6 2 -10 9 -6 14 3 5 -10 8 -28 8 -19 -1 -25 -3 -15 -6 16 -4 15 -7 -8
-19 -30 -16 -48 -19 -25 -4 25 15 3 23 -46 15 -29 -4 -42 -10 -35 -14 15 -10
-34 -21 -90 -21 -22 0 -39 -4 -39 -9 0 -6 -21 -13 -46 -17 -25 -3 -48 -13 -51
-20 -3 -8 -18 -14 -35 -14 -17 0 -27 -4 -23 -10 4 -6 -6 -10 -24 -10 -16 0
-33 -4 -36 -10 -3 -5 -15 -10 -25 -10 -10 0 -20 -4 -22 -8 -3 -9 -99 -55 -138
-67 -14 -4 -33 -16 -43 -26 -10 -11 -27 -19 -37 -19 -11 0 -20 -4 -20 -8 0 -5
-18 -16 -40 -26 -22 -9 -39 -22 -37 -29 1 -6 -7 -11 -17 -12 -25 0 -32 -22 -9
-28 10 -2 -1 -4 -24 -4 -33 1 -47 -4 -67 -26 -14 -15 -30 -27 -36 -27 -5 0
-10 -4 -10 -10 0 -5 7 -10 15 -10 8 0 18 0 23 0 4 0 7 6 7 13 0 6 7 12 15 12
9 0 14 8 12 18 -2 9 2 17 8 17 6 0 8 -6 4 -12 -6 -9 -3 -9 9 0 9 8 24 12 34
10 14 -3 11 -8 -14 -21 -20 -11 -33 -25 -33 -37 0 -13 -7 -20 -20 -20 -11 0
-20 -5 -20 -11 0 -6 -9 -8 -20 -4 -11 4 -20 2 -20 -4 0 -6 -17 -27 -37 -46
-27 -25 -39 -31 -45 -22 -6 8 -10 5 -14 -10 -4 -13 -10 -21 -14 -18 -5 3 -6
14 -3 25 7 26 -9 25 -33 -2 -10 -12 -13 -18 -5 -13 10 5 12 4 7 -3 -4 -7 -16
-12 -26 -12 -10 0 -23 -6 -27 -13 -4 -6 -26 -28 -48 -46 -22 -19 -39 -39 -37
-44 1 -5 -1 -6 -6 -3 -11 7 -39 -27 -34 -42 2 -7 -5 -12 -15 -12 -17 0 -43
-40 -43 -66 0 -7 6 -14 13 -17 7 -2 8 -8 3 -13 -5 -5 -11 -4 -13 4 -3 6 -9 9
-15 6 -6 -4 -8 1 -3 15 6 20 5 20 -19 -4 -15 -15 -27 -32 -29 -38 -1 -7 -6
-15 -12 -19 -7 -5 -6 -14 2 -27 9 -15 9 -25 0 -45 -7 -14 -15 -26 -19 -26 -5
0 -8 -6 -8 -13 0 -11 -41 -55 -66 -70 -7 -4 -15 0 -18 9 -4 12 -2 15 9 11 18
-8 26 5 15 23 -7 12 -12 11 -29 -4 -11 -10 -19 -22 -16 -26 2 -3 -5 -13 -16
-20 -10 -8 -19 -22 -19 -32 0 -10 -4 -18 -10 -18 -5 0 -10 -7 -10 -15 0 -8 -4
-15 -9 -15 -5 0 -11 -8 -14 -17 -3 -10 -14 -31 -24 -46 -16 -24 -16 -29 -3
-38 13 -9 13 -10 -2 -6 -18 6 -32 -18 -21 -35 3 -6 1 -8 -4 -5 -13 8 -39 -30
-49 -69 -4 -16 -13 -34 -21 -39 -7 -6 -14 -25 -16 -42 -1 -18 -5 -33 -9 -33
-5 0 -8 -7 -8 -15 0 -8 -4 -15 -10 -15 -5 0 -10 -7 -10 -15 0 -9 -9 -34 -19
-56 -11 -21 -15 -37 -10 -33 5 3 9 0 9 -5 0 -6 -4 -11 -9 -11 -4 0 -11 -16
-14 -35 -3 -19 -13 -42 -21 -51 -9 -8 -16 -31 -16 -50 0 -19 -4 -34 -8 -34
-14 0 -77 -314 -66 -332 2 -3 -2 -8 -8 -10 -10 -4 -14 -72 -16 -289 -2 -156 0
-281 4 -277 4 4 13 3 20 -3 8 -7 14 -7 19 1 3 5 19 10 35 10 16 0 31 4 34 9 4
5 29 12 56 16 28 4 50 11 50 16 0 5 21 9 48 9 30 0 42 3 33 9 -8 6 7 11 45 16
85 10 96 17 46 30 -54 13 -55 30 -2 28 22 -1 40 2 40 7 0 12 104 9 112 -4 9
-13 68 -9 132 10 27 8 71 14 98 14 26 0 48 4 48 9 0 4 25 11 55 14 30 3 58 8
63 11 5 3 12 57 15 120 3 63 13 136 21 163 8 26 20 75 26 108 7 33 18 74 25
90 7 17 18 48 25 70 7 22 16 45 20 50 4 6 14 29 21 53 6 23 15 42 18 42 3 0
12 15 20 33 18 42 132 221 143 225 4 2 8 8 8 13 0 9 35 50 103 121 15 16 27
32 27 34 0 10 28 34 39 34 6 0 11 5 11 11 0 11 25 39 35 39 3 0 16 10 29 23
41 40 76 67 86 67 6 0 10 5 10 10 0 6 7 10 15 10 8 0 15 5 15 10 0 6 7 10 15
10 8 0 15 4 15 8 0 5 25 22 55 37 30 16 55 33 55 37 0 4 7 8 15 8 8 0 15 5 15
10 0 6 6 10 13 10 18 0 67 24 67 33 0 4 14 7 30 7 17 0 30 5 30 10 0 6 9 10
21 10 11 0 18 4 14 9 -3 5 21 13 52 16 32 4 63 11 68 15 6 5 33 11 60 15 28 4
53 12 56 17 9 13 439 12 452 -1 6 -6 33 -11 59 -11 26 0 48 -4 48 -9 0 -5 15
-11 33 -15 62 -12 146 -40 141 -47 -2 -4 10 -11 28 -14 18 -4 51 -18 74 -31
22 -13 48 -24 57 -24 10 0 17 -6 17 -14 0 -11 53 -39 68 -36 1 0 13 -10 25
-23 12 -13 30 -26 40 -30 9 -3 17 -11 17 -17 0 -5 5 -10 11 -10 6 0 16 -6 24
-12 7 -7 34 -31 60 -53 85 -73 215 -202 215 -214 0 -6 7 -11 15 -11 8 0 15 5
15 10 0 6 6 10 14 10 8 0 16 4 18 8 2 4 23 23 48 42 25 19 47 37 50 40 3 3 21
14 40 24 19 11 47 33 62 48 15 16 29 29 32 28 21 -1 26 2 26 17 0 9 3 13 6 10
4 -4 16 3 26 16 11 12 25 22 31 22 7 1 11 7 9 13 -1 7 5 12 14 10 27 -5 26 16
-1 29 -14 6 -25 7 -25 2 0 -5 5 -9 11 -9 8 0 8 -5 -1 -15 -14 -17 -50 -20 -50
-5 0 6 6 13 14 16 8 3 12 13 9 25 -6 20 11 27 22 9 3 -5 15 -10 26 -10 11 0
22 -7 25 -15 4 -8 10 -15 16 -15 5 0 7 4 3 9 -3 5 0 11 7 14 7 2 5 3 -4 2 -19
-3 -23 11 -10 31 4 7 18 14 31 15 24 4 24 5 7 22 -18 17 -17 18 8 11 20 -5 26
-2 26 10 0 19 5 20 31 6 16 -9 19 -7 16 12 -2 19 3 23 26 23 15 0 36 8 47 18
14 12 20 13 20 4 0 -7 11 -14 25 -15 14 -1 25 3 25 8 0 6 -6 10 -14 10 -17 0
-31 18 -22 27 3 3 11 1 18 -4 17 -14 58 -23 58 -14 0 5 15 13 33 19 l32 10
-32 1 c-17 1 -34 -5 -37 -11 -5 -10 -7 -10 -12 0 -3 6 -17 12 -32 12 -21 0
-25 13 -4 16 16 2 48 18 54 28 11 16 10 28 -2 21 -5 -3 -10 1 -10 10 0 12 -5
15 -16 11 -9 -3 -20 -6 -25 -6 -4 0 -6 -7 -3 -15 4 -8 1 -15 -5 -15 -12 0 -14
11 -5 34 3 8 12 12 20 9 21 -8 17 21 -6 42 -11 10 -17 22 -14 26 3 5 -2 9 -10
9 -9 0 -16 5 -16 11 0 13 -25 39 -37 39 -5 0 -17 14 -26 30 -10 17 -31 37 -48
45 -16 9 -29 20 -29 27 0 6 -12 21 -27 35 -20 17 -35 22 -53 18 -24 -6 -24 -6
-6 14 17 19 17 21 3 21 -10 0 -17 5 -17 10 0 6 -6 10 -14 10 -8 0 -16 7 -20
15 -8 22 -26 18 -26 -5 0 -11 -7 -20 -15 -20 -8 0 -15 5 -15 10 0 6 4 10 9 10
5 0 12 7 15 16 6 16 -15 44 -32 44 -6 0 -12 5 -14 12 -3 7 -11 9 -24 4 -12 -6
-15 -10 -6 -13 6 -3 9 -10 5 -15 -4 -7 2 -9 15 -6 18 5 22 2 22 -18 0 -34 -25
-30 -40 6 -7 17 -18 30 -25 30 -6 0 -12 7 -12 15 0 8 6 15 14 15 11 0 11 4 1
23 -10 19 -13 20 -16 5 -4 -19 -32 -25 -32 -8 0 6 5 10 10 10 6 0 2 9 -9 21
-11 12 -24 18 -30 14 -6 -3 -11 -1 -11 6 0 7 -13 10 -34 7 -19 -2 -32 0 -29 5
3 5 -5 6 -18 3 -13 -3 -18 -3 -11 0 6 3 10 10 6 15 -3 5 4 9 15 9 12 0 21 -4
21 -10 0 -5 7 -10 15 -10 9 0 12 6 9 15 -4 8 -11 15 -18 15 -6 0 -24 11 -40
25 -16 14 -35 25 -43 25 -7 0 -13 5 -13 10 0 6 -4 10 -10 10 -5 0 -32 14 -58
30 -27 17 -56 30 -65 30 -8 0 -17 4 -19 8 -1 4 -23 17 -48 29 -32 15 -52 18
-72 12 -16 -4 -30 -4 -33 2 -4 5 4 9 17 9 21 1 21 2 5 11 -9 6 -27 9 -40 7
-13 -2 -21 2 -20 9 3 14 -49 27 -77 18 -21 -7 -28 10 -7 18 6 3 0 6 -15 6 -16
1 -28 6 -28 11 0 6 -15 10 -32 10 -46 1 -140 24 -132 33 4 4 -14 7 -40 7 -29
0 -45 4 -41 10 4 6 -14 10 -47 10 -29 0 -66 7 -82 15 -38 20 -577 22 -598 3z
m147 -15 c-11 -3 -24 -9 -29 -14 -6 -5 -14 -5 -20 0 -6 5 -24 11 -41 14 -16 2
2 4 40 4 39 1 61 -1 50 -4z m406 -4 c-13 -5 -33 -6 -45 -3 -19 6 -20 5 -6 -12
14 -17 14 -18 -1 -6 -9 7 -31 15 -49 17 -63 8 -42 15 41 14 64 0 78 -3 60 -10z
m120 -19 c4 0 6 -7 3 -15 -4 -9 -19 -15 -41 -15 -22 0 -32 4 -28 11 4 6 13 8
21 5 14 -5 29 9 17 17 -5 2 -2 2 5 0 8 -1 18 -3 23 -3z m34 -29 c3 -5 1 -12
-4 -15 -5 -3 -11 1 -15 9 -6 16 9 21 19 6z m-594 -14 c-6 -8 -7 -18 -3 -23 4
-4 -1 -2 -10 5 -24 18 -23 31 3 31 17 0 19 -3 10 -13z m747 1 c6 -1 12 -6 12
-11 0 -5 -10 -7 -22 -3 -13 3 -29 6 -35 6 -7 0 -13 5 -13 11 0 7 8 9 23 4 12
-3 28 -7 35 -7z m-321 -4 c-3 -3 -12 -4 -19 -1 -8 3 -5 6 6 6 11 1 17 -2 13
-5z m233 -4 c0 -5 -11 -10 -25 -10 -14 0 -25 5 -25 10 0 6 11 10 25 10 14 0
25 -4 25 -10z m-990 -11 c0 -5 -3 -8 -8 -5 -4 2 -29 0 -56 -5 -50 -9 -79 -3
-55 12 20 13 119 11 119 -2z m140 -4 c7 -8 9 -15 6 -15 -4 0 -14 7 -22 15 -9
8 -11 15 -6 15 5 0 15 -7 22 -15z m-285 -5 c-3 -5 -12 -10 -18 -10 -7 0 -6 4
3 10 19 12 23 12 15 0z m-115 -59 c0 -6 -4 -13 -10 -16 -5 -3 -10 -1 -10 4 0
6 -5 11 -11 11 -5 0 -7 -4 -4 -10 3 -6 -1 -7 -10 -3 -13 5 -14 7 -3 14 18 12
48 11 48 0z m37 3 c-3 -3 -12 -4 -19 -1 -8 3 -5 6 6 6 11 1 17 -2 13 -5z
m1638 -34 c3 -5 1 -10 -4 -10 -6 0 -11 5 -11 10 0 6 2 10 4 10 3 0 8 -4 11
-10z m-2115 -180 c0 -5 -9 -10 -21 -10 -11 0 -17 5 -14 10 3 6 13 10 21 10 8
0 14 -4 14 -10z m2357 -6 c-3 -3 -12 -4 -19 -1 -8 3 -5 6 6 6 11 1 17 -2 13
-5z m168 -54 c3 -5 2 -10 -4 -10 -5 0 -13 5 -16 10 -3 6 -2 10 4 10 5 0 13 -4
16 -10z m-8 -26 c-3 -3 -12 -4 -19 -1 -8 3 -5 6 6 6 11 1 17 -2 13 -5z m33
-24 c0 -5 -2 -10 -4 -10 -3 0 -8 5 -11 10 -3 6 -1 10 4 10 6 0 11 -4 11 -10z
m-1315 -41 c130 -2 189 -8 180 -18 -11 -10 -404 -11 -410 -1 -3 6 -3 10 2 10
22 1 88 13 92 16 2 2 7 2 10 0 4 -3 60 -5 126 -7z m1350 -28 c-6 -5 -25 10
-25 20 0 5 6 4 14 -3 8 -7 12 -15 11 -17z m-790 -41 c3 -5 1 -10 -4 -10 -6 0
-11 5 -11 10 0 6 2 10 4 10 3 0 8 -4 11 -10z m941 -16 c1 -13 -5 -20 -17 -20
-11 0 -19 7 -19 16 0 35 34 38 36 4z m-1983 9 c-7 -2 -19 -2 -25 0 -7 3 -2 5
12 5 14 0 19 -2 13 -5z m1097 -17 c0 -3 -4 -8 -10 -11 -5 -3 -10 -1 -10 4 0 6
5 11 10 11 6 0 10 -2 10 -4z m-2220 -16 c0 -5 -4 -10 -10 -10 -5 0 -10 5 -10
10 0 6 5 10 10 10 6 0 10 -4 10 -10z m1048 3 c-10 -2 -26 -2 -35 0 -10 3 -2 5
17 5 19 0 27 -2 18 -5z m1072 -3 c0 -6 -11 -8 -27 -4 -40 10 -41 14 -5 14 18
0 32 -5 32 -10z m1034 -19 c3 -5 -3 -11 -13 -14 -14 -3 -18 -1 -14 9 6 16 19
18 27 5z m-908 -24 c4 -4 -2 -7 -14 -7 -12 0 -22 4 -22 9 0 10 26 9 36 -2z
m154 3 c0 -5 -2 -10 -4 -10 -3 0 -8 5 -11 10 -3 6 -1 10 4 10 6 0 11 -4 11
-10z m-1517 -7 c-7 -2 -21 -2 -30 0 -10 3 -4 5 12 5 17 0 24 -2 18 -5z m-953
-7 c0 -2 -7 -6 -15 -10 -8 -3 -15 -1 -15 4 0 6 7 10 15 10 8 0 15 -2 15 -4z
m45 -26 c3 -5 -1 -10 -9 -10 -9 0 -16 5 -16 10 0 6 4 10 9 10 6 0 13 -4 16
-10z m840 0 c-3 -5 -10 -10 -16 -10 -5 0 -9 5 -9 10 0 6 7 10 16 10 8 0 12 -4
9 -10z m-48 -15 c0 -8 -4 -15 -9 -15 -10 0 -11 14 -1 23 9 10 10 9 10 -8z
m-897 -5 c0 -5 -5 -10 -11 -10 -5 0 -7 5 -4 10 3 6 8 10 11 10 2 0 4 -4 4 -10z
m2521 -7 c-11 -4 -11 -7 0 -14 7 -4 11 -10 8 -13 -2 -3 -11 -1 -18 3 -15 10
-6 31 12 30 8 0 7 -3 -2 -6z m95 -39 c-3 -7 -1 -15 5 -18 5 -2 4 -3 -3 -2 -7
2 -12 11 -10 21 2 9 -1 15 -6 11 -5 -3 -9 1 -9 9 0 11 3 12 14 3 8 -6 12 -17
9 -24z m-2626 16 c0 -5 -5 -10 -11 -10 -5 0 -7 5 -4 10 3 6 8 10 11 10 2 0 4
-4 4 -10z m855 0 c-3 -5 -13 -10 -21 -10 -8 0 -14 5 -14 10 0 6 9 10 21 10 11
0 17 -4 14 -10z m1885 0 c0 -5 -5 -10 -11 -10 -5 0 -7 5 -4 10 3 6 8 10 11 10
2 0 4 -4 4 -10z m-1935 -10 c3 -5 1 -10 -4 -10 -6 0 -11 5 -11 10 0 6 2 10 4
10 3 0 8 -4 11 -10z m-91 -9 c3 -5 -3 -11 -14 -14 -13 -3 -20 0 -20 9 0 15 26
19 34 5z m1866 -1 c0 -5 -7 -10 -16 -10 -8 0 -12 5 -9 10 3 6 10 10 16 10 5 0
9 -4 9 -10z m100 0 c0 -5 -7 -10 -16 -10 -8 0 -12 5 -9 10 3 6 10 10 16 10 5
0 9 -4 9 -10z m-2753 -32 c-3 -8 -6 -5 -6 6 -1 11 2 17 5 13 3 -3 4 -12 1 -19z
m48 12 c3 -5 -1 -10 -9 -10 -9 0 -16 5 -16 10 0 6 4 10 9 10 6 0 13 -4 16 -10z
m818 3 c-7 -2 -19 -2 -25 0 -7 3 -2 5 12 5 14 0 19 -2 13 -5z m1947 -13 c0 -5
-9 -10 -20 -10 -11 0 -20 5 -20 10 0 6 9 10 20 10 11 0 20 -4 20 -10z m-2010
-18 c0 -5 -7 -9 -15 -9 -8 0 -15 4 -15 9 0 4 7 8 15 8 8 0 15 -4 15 -8z m1985
-32 c10 -11 13 -20 7 -20 -7 0 -12 5 -12 10 0 6 -9 10 -20 10 -11 0 -20 5 -20
10 0 17 26 11 45 -10z m-2008 4 c-3 -3 -12 -4 -19 -1 -8 3 -5 6 6 6 11 1 17
-2 13 -5z m-854 -46 c-4 -7 -8 -17 -8 -22 0 -5 -6 -11 -14 -14 -10 -3 -12 0
-8 12 4 10 7 22 7 27 0 5 7 9 16 9 10 0 12 -4 7 -12z m2912 2 c3 -5 1 -10 -4
-10 -6 0 -11 5 -11 10 0 6 2 10 4 10 3 0 8 -4 11 -10z m242 -46 c-3 -3 -12 -4
-19 -1 -8 3 -5 6 6 6 11 1 17 -2 13 -5z m-3191 -114 c0 -11 -4 -20 -8 -20 -4
0 -8 9 -8 20 0 11 4 20 8 20 4 0 8 -9 8 -20z m491 -26 c-3 -3 -12 -4 -19 -1
-8 3 -5 6 6 6 11 1 17 -2 13 -5z m81 -14 c-7 -10 -14 -18 -15 -16 -6 6 9 36
18 36 5 0 4 -9 -3 -20z m-675 -26 c-3 -8 -12 -13 -20 -10 -8 3 -12 2 -10 -2 6
-10 -31 -43 -38 -33 -2 5 2 12 11 15 8 3 12 11 8 17 -8 13 7 24 35 26 14 1 18
-3 14 -13z m3587 -4 c0 -5 -2 -10 -4 -10 -3 0 -8 5 -11 10 -3 6 -1 10 4 10 6
0 11 -4 11 -10z m-2945 -10 c-3 -5 -11 -10 -16 -10 -6 0 -7 5 -4 10 3 6 11 10
16 10 6 0 7 -4 4 -10z m-38 -32 c-3 -8 -6 -5 -6 6 -1 11 2 17 5 13 3 -3 4 -12
1 -19z m2753 8 c0 -3 -4 -8 -10 -11 -5 -3 -10 -1 -10 4 0 6 5 11 10 11 6 0 10
-2 10 -4z m20 -41 c0 -8 -2 -15 -4 -15 -2 0 -6 7 -10 15 -3 8 -1 15 4 15 6 0
10 -7 10 -15z m33 2 c3 -8 1 -20 -4 -28 -5 -8 -9 -9 -10 -4 0 6 -2 18 -4 28
-4 20 10 23 18 4z m42 3 c3 -5 2 -10 -4 -10 -5 0 -13 5 -16 10 -3 6 -2 10 4
10 5 0 13 -4 16 -10z m-2925 -38 c0 -15 -2 -15 -10 -2 -13 20 -13 33 0 25 6
-3 10 -14 10 -23z m2904 -17 c3 -8 1 -15 -4 -15 -6 0 -10 7 -10 15 0 8 2 15 4
15 2 0 6 -7 10 -15z m-2964 -5 c0 -5 -2 -10 -4 -10 -3 0 -8 5 -11 10 -3 6 -1
10 4 10 6 0 11 -4 11 -10z m3010 0 c0 -5 -7 -10 -16 -10 -8 0 -12 5 -9 10 3 6
10 10 16 10 5 0 9 -4 9 -10z m-3615 -59 c3 -5 1 -12 -5 -16 -5 -3 -10 1 -10 9
0 18 6 21 15 7z m572 -73 c-3 -8 -6 -5 -6 6 -1 11 2 17 5 13 3 -3 4 -12 1 -19z
m-587 2 c0 -5 -4 -10 -10 -10 -5 0 -10 5 -10 10 0 6 5 10 10 10 6 0 10 -4 10
-10z m-30 -20 c0 -5 -2 -10 -4 -10 -3 0 -8 5 -11 10 -3 6 -1 10 4 10 6 0 11
-4 11 -10z m597 -16 c-3 -3 -12 -4 -19 -1 -8 3 -5 6 6 6 11 1 17 -2 13 -5z
m-614 -19 c4 -8 2 -17 -3 -20 -6 -4 -10 3 -10 14 0 25 6 27 13 6z m-14 -72 c1
-13 -3 -23 -8 -23 -6 0 -9 19 -9 43 1 31 3 37 9 22 4 -11 8 -30 8 -42z m576
17 c3 -5 1 -10 -4 -10 -6 0 -11 5 -11 10 0 6 2 10 4 10 3 0 8 -4 11 -10z
m-605 -30 c0 -5 -2 -10 -4 -10 -3 0 -8 5 -11 10 -3 6 -1 10 4 10 6 0 11 -4 11
-10z m110 6 c0 -3 -4 -8 -10 -11 -5 -3 -10 -1 -10 4 0 6 5 11 10 11 6 0 10 -2
10 -4z m-100 -41 c0 -8 -4 -15 -10 -15 -5 0 -10 5 -10 11 0 5 -5 7 -12 3 -7
-4 -8 -3 -4 4 10 17 36 15 36 -3z m-20 -39 c0 -9 -9 -14 -20 -13 -22 1 -27 13
-7 20 21 9 27 7 27 -7z m530 -48 c0 -18 -2 -20 -9 -8 -6 8 -7 18 -5 22 9 14
14 9 14 -14z m-555 2 c3 -5 1 -10 -4 -10 -6 0 -11 5 -11 10 0 6 2 10 4 10 3 0
8 -4 11 -10z m487 -118 c3 -11 0 -19 -8 -19 -15 0 -19 19 -7 30 9 10 10 9 15
-11z m-555 -94 c-3 -8 -6 -5 -6 6 -1 11 2 17 5 13 3 -3 4 -12 1 -19z m533 -8
c0 -5 -4 -10 -10 -10 -5 0 -10 5 -10 10 0 6 5 10 10 10 6 0 10 -4 10 -10z
m-560 -57 c-11 -17 -11 -17 -6 0 3 10 6 24 7 30 0 9 2 9 5 0 3 -7 0 -20 -6
-30z m512 -75 c-8 -8 -9 -4 -5 13 4 13 8 18 11 10 2 -7 -1 -18 -6 -23z m-422
-13 c0 -8 -4 -15 -9 -15 -13 0 -22 16 -14 24 11 11 23 6 23 -9z m-110 -46 c0
-5 -4 -9 -10 -9 -5 0 -10 7 -10 16 0 8 5 12 10 9 6 -3 10 -10 10 -16z m511 4
c0 -5 2 -20 4 -36 2 -15 0 -25 -5 -22 -11 7 -19 65 -8 65 4 0 8 -3 9 -7z m-11
-123 c0 -22 -4 -40 -8 -40 -7 0 -9 63 -3 78 6 13 11 -6 11 -38z m-530 -178 c0
-5 -7 -9 -15 -9 -8 0 -12 4 -9 9 3 4 9 8 15 8 5 0 9 -4 9 -8z m487 -175 c-2
-23 -3 -1 -3 48 0 50 1 68 3 42 2 -26 2 -67 0 -90z m-36 -20 c-10 -9 -11 -8
-5 6 3 10 9 15 12 12 3 -3 0 -11 -7 -18z m-166 -78 c4 -6 1 -10 -6 -8 -34 4
-70 -2 -64 -11 3 -5 -1 -10 -10 -10 -9 0 -13 5 -9 11 4 8 0 8 -15 0 -17 -9
-21 -9 -19 1 5 21 112 36 123 17z m-145 -19 c0 -5 -4 -10 -10 -10 -5 0 -10 5
-10 10 0 6 5 10 10 10 6 0 10 -4 10 -10z"/>
<path d="M7863 11203 c9 -2 23 -2 30 0 6 3 -1 5 -18 5 -16 0 -22 -2 -12 -5z"/>
<path d="M7498 11693 c7 -3 16 -2 19 1 4 3 -2 6 -13 5 -11 0 -14 -3 -6 -6z"/>
<path d="M6406 11244 c-10 -25 1 -29 14 -5 6 12 7 21 1 21 -5 0 -12 -7 -15
-16z"/>
<path d="M6364 11205 c-4 -8 -13 -15 -22 -15 -8 0 -13 -3 -9 -6 9 -9 45 5 51
21 3 8 1 15 -5 15 -5 0 -12 -7 -15 -15z"/>
<path d="M10596 10845 c-8 -8 -24 -15 -35 -15 -12 0 -21 -4 -21 -9 0 -5 -13
-12 -30 -16 -16 -4 -30 -11 -30 -16 0 -5 -12 -9 -26 -9 -14 0 -23 -4 -20 -9 4
-5 -12 -12 -34 -16 -22 -4 -40 -10 -40 -15 0 -4 -13 -10 -30 -13 -16 -4 -49
-15 -72 -25 -24 -10 -59 -25 -78 -32 -19 -8 -37 -16 -40 -20 -3 -3 -23 -14
-45 -25 -22 -11 -43 -24 -46 -28 -3 -5 -9 -8 -13 -8 -26 4 -46 -1 -41 -8 3 -5
-11 -15 -30 -21 -19 -6 -35 -16 -35 -21 0 -5 -7 -9 -15 -9 -8 0 -15 -4 -15 -9
0 -5 -13 -14 -30 -20 -16 -5 -30 -15 -30 -20 0 -6 -11 -11 -24 -11 -13 0 -29
-7 -36 -15 -14 -17 -67 -45 -87 -45 -7 0 -13 -7 -13 -15 0 -8 -11 -17 -25 -21
-14 -3 -25 -9 -25 -13 0 -4 -17 -13 -37 -20 -21 -8 -46 -22 -56 -32 -10 -11
-22 -19 -28 -19 -6 0 -17 -6 -24 -12 -29 -26 -40 -34 -58 -41 -10 -4 -15 -11
-12 -17 3 -5 0 -7 -8 -4 -8 3 -21 -2 -30 -10 -9 -9 -20 -16 -26 -16 -6 0 -11
-7 -11 -15 0 -8 -7 -15 -15 -15 -8 0 -15 -4 -15 -10 0 -5 11 -10 25 -10 16 0
25 6 25 15 0 12 3 13 19 3 11 -7 17 -16 14 -21 -3 -5 -9 -4 -13 3 -6 9 -11 7
-20 -9 -10 -19 -14 -20 -28 -9 -13 11 -15 11 -9 -4 4 -12 2 -18 -8 -18 -8 0
-15 -6 -15 -14 0 -8 -7 -16 -15 -20 -8 -3 -15 -13 -15 -22 0 -8 -6 -14 -12
-12 -7 3 -19 -1 -26 -9 -7 -7 -25 -13 -38 -13 -15 0 -23 -4 -19 -10 4 -6 11
-8 16 -5 5 4 9 -1 9 -10 0 -12 -6 -15 -20 -10 -11 4 -20 2 -20 -4 0 -6 -6 -11
-13 -11 -7 0 -22 -8 -33 -18 -29 -27 -51 -33 -64 -16 -10 11 -9 14 3 14 8 0
17 7 21 15 3 9 0 15 -10 15 -8 0 -12 -4 -9 -10 3 -5 -3 -10 -14 -10 -12 0 -21
-7 -21 -15 0 -8 6 -15 14 -15 21 0 31 -21 15 -31 -8 -5 -22 -6 -31 -3 -13 4
-16 1 -12 -9 3 -8 -2 -17 -10 -20 -18 -7 -31 9 -16 18 6 4 8 11 5 16 -4 5 4 9
16 9 18 0 20 3 11 12 -9 9 -16 7 -32 -7 -11 -10 -17 -22 -14 -26 3 -5 -4 -9
-15 -9 -14 0 -19 -5 -14 -16 4 -12 7 -13 14 -3 12 20 22 4 26 -39 1 -22 -1
-32 -6 -24 -6 9 -14 3 -32 -22 -13 -19 -26 -33 -29 -31 -13 8 -50 -41 -50 -66
0 -7 -11 -22 -25 -35 -14 -13 -25 -29 -25 -36 0 -9 -3 -9 -10 2 -8 12 -10 9
-10 -12 0 -21 -7 -29 -35 -39 -22 -8 -34 -18 -31 -26 7 -17 -21 -17 -27 0 -4
7 -8 3 -13 -11 -4 -14 -12 -21 -21 -18 -7 3 -16 -1 -19 -8 -3 -8 -16 -17 -30
-20 -13 -4 -24 -13 -24 -21 0 -8 -5 -15 -10 -15 -6 0 -14 -8 -17 -17 -8 -22
-24 -38 -42 -44 -7 -3 -19 -19 -27 -37 -12 -30 -12 -32 6 -32 11 0 20 -4 20
-10 0 -5 -7 -10 -15 -10 -11 0 -14 -7 -9 -25 4 -16 2 -25 -6 -25 -7 0 -10 7
-6 15 3 8 1 15 -5 15 -6 0 -9 6 -6 13 3 8 1 20 -4 28 -7 11 -9 9 -9 -8 0 -14
-6 -23 -15 -23 -8 0 -15 -7 -15 -15 0 -8 5 -15 10 -15 6 0 10 6 10 13 0 8 4 7
10 -3 14 -21 12 -30 -5 -30 -18 0 -20 -17 -2 -23 20 -7 2 -18 -39 -23 -22 -2
-34 -2 -27 2 7 3 9 12 6 20 -3 8 0 14 6 14 6 0 11 -4 11 -10 0 -5 4 -10 8 -10
4 0 8 9 8 20 0 11 -3 20 -7 20 -19 0 -39 -14 -39 -26 0 -8 -5 -14 -12 -14 -6
0 -9 -3 -5 -6 3 -3 -9 -21 -28 -39 -18 -19 -31 -36 -28 -39 3 -3 -2 -8 -11
-12 -9 -3 -16 -11 -16 -16 0 -5 -13 -23 -30 -40 -16 -16 -30 -34 -30 -39 0 -5
-7 -9 -15 -9 -8 0 -15 -6 -15 -12 0 -7 -14 -26 -30 -42 -17 -16 -30 -35 -30
-43 0 -7 -7 -13 -15 -13 -8 0 -15 -7 -15 -16 0 -10 6 -14 15 -10 8 3 15 0 15
-5 0 -6 -8 -9 -18 -7 -10 3 -27 -1 -38 -9 -16 -12 -17 -16 -5 -34 9 -15 10
-24 2 -32 -8 -8 -11 -5 -11 11 0 12 -3 22 -6 22 -7 0 -34 -27 -34 -34 0 -3
-11 -17 -25 -32 -29 -32 -31 -42 -8 -59 11 -8 13 -14 5 -19 -7 -4 -12 -2 -12
3 0 6 -11 11 -25 11 -27 0 -33 -18 -13 -38 9 -9 9 -12 0 -12 -7 0 -12 5 -12
12 0 7 -6 6 -17 -4 -24 -21 -73 0 -73 31 0 6 -5 11 -11 11 -5 0 -25 17 -44 37
-29 31 -36 35 -49 24 -9 -7 -13 -17 -10 -22 3 -5 0 -9 -5 -9 -15 0 -14 16 3
33 13 13 12 17 -5 36 -11 11 -24 21 -29 21 -6 0 -10 7 -10 15 0 16 -16 20 -24
6 -3 -5 -21 -9 -40 -8 -25 1 -32 5 -28 15 3 8 -5 22 -19 33 -18 13 -21 21 -12
29 8 9 16 7 31 -8 11 -11 18 -23 14 -26 -3 -3 0 -6 6 -6 6 0 12 -7 14 -15 2
-10 8 -12 17 -6 11 7 3 20 -38 60 -57 55 -63 58 -80 37 -10 -12 -8 -13 8 -9
13 3 21 1 21 -7 0 -6 -10 -10 -22 -8 -26 3 -38 38 -14 38 24 0 19 11 -16 42
-21 17 -36 24 -43 18 -13 -10 -55 -9 -55 1 0 4 -8 10 -17 12 -17 4 -17 5 0 6
10 0 15 6 12 11 -3 6 -2 10 3 10 6 0 12 -7 16 -15 6 -17 36 -21 36 -5 0 6 -4
10 -10 10 -5 0 -10 6 -10 13 0 13 -47 39 -53 28 -2 -3 -2 0 0 7 6 25 -24 42
-75 42 -28 0 -52 -4 -54 -10 -1 -5 -64 -12 -138 -15 -153 -7 -183 -11 -175
-25 4 -6 -40 -10 -117 -10 -83 0 -118 -3 -108 -10 11 -7 0 -10 -37 -10 -28 0
-55 -4 -58 -10 -3 -5 -30 -10 -60 -10 -30 0 -56 -4 -59 -9 -3 -4 -34 -11 -68
-15 -131 -13 -168 -19 -168 -27 0 -5 -20 -9 -45 -9 -25 0 -45 -4 -45 -8 0 -5
-35 -13 -77 -19 -127 -18 -293 -57 -289 -68 2 -6 -15 -10 -38 -11 -59 0 -118
-13 -111 -25 4 -5 -11 -9 -34 -9 -22 0 -42 -4 -45 -9 -3 -5 -22 -12 -42 -16
-20 -3 -48 -11 -63 -17 -32 -14 -37 -15 -56 -17 -8 0 -15 -6 -15 -12 0 -5 4
-8 9 -4 5 3 12 1 16 -5 7 -11 -5 -13 -29 -4 -9 3 -13 10 -10 15 7 13 -10 11
-23 -2 -9 -9 -43 -17 -86 -18 -10 -1 -15 -5 -12 -11 4 -6 -7 -10 -27 -10 -18
0 -46 -7 -62 -15 -15 -8 -39 -15 -52 -15 -13 0 -24 -4 -24 -10 0 -5 -8 -10
-18 -10 -10 0 -23 -5 -29 -11 -6 -6 -21 -9 -34 -7 -19 2 -26 13 -37 60 -8 32
-19 56 -25 55 -7 -1 -11 6 -9 16 4 23 -17 87 -28 87 -5 0 -7 7 -3 16 3 8 1 25
-5 37 -7 12 -13 33 -15 47 -4 28 -14 56 -28 82 -5 10 -9 24 -9 32 0 7 -7 27
-15 42 -8 16 -15 38 -15 49 0 28 -15 49 -29 41 -7 -5 -9 -1 -5 8 3 9 3 24 -1
34 -4 9 -9 35 -10 56 -4 40 -22 85 -40 98 -6 5 -5 8 3 8 6 0 12 5 12 10 0 6
-6 10 -14 10 -8 0 -15 16 -19 41 -3 23 -11 46 -19 50 -20 13 -60 10 -92 -6
-15 -8 -38 -15 -50 -15 -30 0 -66 -11 -66 -20 0 -18 35 -20 47 -4 8 11 13 13
13 5 0 -7 4 -10 9 -7 5 3 14 -1 21 -9 11 -13 8 -15 -16 -16 -16 -1 -32 -1 -36
0 -4 0 -23 -6 -42 -14 -31 -13 -35 -13 -30 0 4 8 13 15 22 15 11 0 13 3 6 10
-12 12 -94 3 -94 -10 0 -4 -16 -11 -36 -15 -20 -3 -44 -13 -52 -21 -18 -19
-28 -99 -10 -88 8 5 9 2 4 -11 -4 -10 6 -59 23 -114 16 -53 35 -117 42 -143 8
-27 17 -48 21 -48 4 0 8 -16 8 -35 0 -19 5 -35 10 -35 6 0 10 -13 10 -29 0
-17 4 -32 9 -35 5 -4 12 -24 16 -46 4 -22 10 -40 15 -40 4 0 11 -16 15 -36 3
-20 10 -44 15 -53 7 -14 17 -50 35 -124 2 -10 11 -32 20 -49 8 -17 15 -38 15
-46 0 -14 30 -110 50 -157 4 -11 16 -48 25 -82 10 -35 21 -63 24 -63 4 0 8
-14 9 -32 2 -17 6 -36 11 -42 4 -6 16 -42 26 -81 11 -38 22 -72 26 -75 3 -3
10 -21 13 -40 9 -42 34 -124 53 -167 7 -17 13 -35 13 -40 0 -4 10 -38 22 -75
16 -51 25 -65 34 -57 9 7 12 -4 12 -50 0 -61 6 -81 23 -81 8 0 6 45 -6 106 -3
13 1 21 9 21 11 0 15 -16 16 -61 1 -71 1 -73 -3 -106 -1 -14 3 -36 10 -50 7
-14 13 -35 13 -47 0 -13 5 -23 10 -23 6 0 10 -12 10 -26 0 -22 3 -24 22 -18
19 6 21 5 11 -8 -18 -21 -7 -27 35 -18 20 4 55 11 77 15 33 6 37 9 20 15 -15
6 -7 9 28 9 32 1 47 5 47 14 0 9 16 14 47 16 26 1 50 7 54 12 3 6 25 13 48 16
36 5 44 11 56 39 16 39 1 124 -19 104 -8 -8 -8 -13 1 -18 8 -5 8 -14 -1 -35
-10 -25 -11 -18 -11 58 -1 47 -5 89 -11 93 -6 4 -19 39 -29 77 -15 57 -20 65
-25 45 -3 -14 -3 -26 2 -28 16 -7 8 -38 -11 -38 -15 0 -17 5 -11 26 12 43 12
130 1 130 -6 0 -11 -20 -11 -46 0 -25 -4 -43 -8 -40 -9 5 -8 83 2 123 2 13 1
25 -4 28 -4 3 -6 14 -3 25 3 11 0 20 -6 20 -6 0 -11 14 -11 31 0 17 -4 28 -10
24 -6 -3 -10 5 -10 19 0 14 -4 27 -9 30 -5 3 -12 23 -15 43 -8 43 -28 93 -37
93 -4 0 -9 23 -13 51 -4 28 -13 58 -21 66 -18 18 -5 57 21 61 35 7 39 22 5 22
-18 0 -30 4 -27 9 3 4 40 6 82 3 56 -3 75 -2 70 7 -5 7 5 11 29 11 25 0 35 4
32 13 -2 6 -11 11 -18 9 -8 -1 -6 4 5 12 13 11 24 12 37 6 21 -12 88 -5 103
10 5 5 26 10 46 10 l35 0 19 -83 c11 -45 23 -84 27 -87 8 -6 38 -81 46 -120 3
-14 9 -27 13 -30 4 -3 11 -23 17 -45 6 -26 14 -39 24 -38 10 2 14 -8 15 -32 1
-42 12 -56 25 -32 14 23 39 22 39 -3 0 -13 -7 -20 -20 -20 -13 0 -20 -7 -20
-20 0 -11 5 -20 10 -20 6 0 10 -10 10 -22 0 -12 3 -18 7 -15 7 8 33 -38 33
-59 0 -8 5 -14 10 -14 6 0 10 9 10 20 0 11 5 20 10 20 13 0 13 -16 0 -39 -13
-26 8 -80 31 -78 10 1 15 5 13 9 -3 4 0 8 5 8 6 0 11 -9 11 -20 0 -12 -5 -17
-14 -14 -11 4 -11 -1 -2 -30 11 -37 26 -48 26 -20 0 8 4 13 10 9 6 -4 5 -14
-1 -29 -9 -19 -7 -28 6 -44 10 -11 23 -18 29 -16 7 3 11 -11 12 -37 0 -28 6
-44 17 -50 9 -6 17 -16 17 -23 0 -8 6 -19 14 -25 10 -9 15 -8 19 4 7 15 37 10
37 -7 0 -5 -4 -6 -10 -3 -5 3 -10 1 -10 -4 0 -6 -7 -11 -15 -11 -8 0 -15 -4
-15 -9 0 -13 34 -24 38 -12 2 6 8 9 13 5 5 -3 9 0 9 7 0 7 2 10 5 7 12 -11 -8
-38 -29 -39 -11 0 -15 -3 -8 -6 6 -2 12 -13 12 -24 0 -14 9 -21 30 -26 22 -4
29 -10 25 -22 -2 -9 -1 -28 3 -43 5 -21 10 -25 22 -18 10 7 12 12 4 18 -13 8
-15 42 -2 42 4 0 8 -9 8 -19 0 -20 25 -35 41 -25 5 3 9 1 9 -5 0 -6 6 -8 14
-5 7 3 16 -2 19 -10 4 -9 1 -15 -5 -13 -7 1 -12 -2 -13 -8 -1 -21 -16 -34 -36
-30 -21 4 -21 4 -4 -15 19 -21 35 -18 35 6 0 8 5 14 11 14 6 0 9 -6 6 -12 -2
-7 0 -21 5 -30 5 -11 5 -18 -1 -18 -5 0 -12 6 -14 13 -4 8 -6 8 -6 -3 -1 -8
11 -25 27 -38 15 -13 22 -21 15 -18 -6 4 -14 2 -18 -4 -3 -6 0 -13 9 -16 8 -3
19 -19 25 -35 5 -16 15 -29 20 -29 6 0 11 -6 11 -12 1 -7 10 -24 20 -37 15
-17 24 -20 33 -13 9 7 17 3 30 -14 12 -17 14 -24 5 -22 -7 2 -16 7 -20 13 -4
5 -6 0 -6 -11 2 -18 28 -55 28 -38 0 3 7 1 15 -6 8 -6 19 -9 24 -5 7 3 8 0 5
-9 -3 -8 -12 -12 -20 -9 -10 4 -12 0 -8 -11 3 -9 10 -14 14 -11 4 3 11 -6 14
-19 3 -14 18 -37 33 -53 16 -16 29 -35 31 -42 2 -8 19 -30 37 -48 19 -19 35
-42 35 -51 1 -14 3 -14 16 3 15 19 16 18 9 -12 -4 -20 -3 -33 3 -33 6 0 21
-17 33 -37 30 -51 29 -49 40 -33 9 12 10 10 6 -7 -3 -13 2 -31 13 -43 21 -24
38 -26 36 -4 0 9 5 19 12 21 7 3 12 -4 12 -15 0 -11 6 -22 14 -25 8 -3 14 -15
13 -26 -1 -14 -5 -17 -11 -11 -6 6 -14 10 -18 10 -16 0 -8 -21 17 -44 14 -13
25 -28 25 -35 0 -6 5 -11 10 -11 6 0 10 -7 10 -15 0 -7 8 -19 18 -24 9 -6 13
-11 8 -11 -6 0 -2 -6 7 -12 9 -7 23 -26 32 -43 10 -21 15 -25 15 -11 0 13 5
16 17 12 9 -4 20 -1 24 6 4 7 11 9 15 6 3 -4 0 -14 -8 -22 -12 -11 -18 -12
-27 -3 -8 8 -11 5 -11 -12 0 -12 4 -19 10 -16 6 3 10 -1 10 -10 0 -9 11 -27
25 -41 14 -14 25 -29 25 -34 0 -6 9 -10 20 -10 11 0 19 -3 19 -7 -4 -27 2 -42
16 -37 11 4 13 2 9 -9 -3 -9 4 -25 15 -36 12 -12 21 -18 21 -13 1 4 7 -6 15
-23 9 -20 14 -24 14 -12 1 9 5 17 10 17 4 0 6 -11 4 -24 -4 -16 4 -32 25 -54
25 -26 32 -28 44 -16 7 8 26 15 41 16 18 2 27 8 27 20 0 10 5 18 10 18 14 0
13 -23 -2 -38 -7 -7 -21 -12 -32 -12 -18 0 -18 -1 2 -19 12 -10 22 -22 22 -26
0 -4 10 -16 23 -27 12 -11 16 -16 8 -12 -10 5 -13 3 -8 -9 4 -11 2 -14 -9 -10
-7 3 -14 11 -14 19 0 8 -7 14 -15 14 -8 0 -17 11 -21 24 -5 21 -35 32 -34 13
0 -4 0 -11 0 -17 0 -5 7 -10 15 -10 8 0 15 -7 15 -15 0 -8 5 -15 10 -15 6 0
10 -4 10 -10 0 -15 43 -55 57 -52 7 1 9 -5 6 -18 -4 -16 0 -20 17 -20 19 0 20
2 10 15 -17 20 -5 32 15 15 19 -16 19 -40 0 -40 -8 0 -15 -4 -15 -10 0 -5 5
-10 12 -10 6 0 9 -3 5 -6 -3 -4 9 -21 27 -38 18 -18 35 -40 39 -49 3 -9 11
-17 17 -17 5 0 10 -5 10 -10 0 -6 11 -21 25 -34 14 -13 25 -29 25 -36 0 -7 3
-11 6 -7 8 7 34 -17 34 -31 0 -6 17 -8 39 -5 30 4 39 2 45 -12 4 -13 2 -16 -9
-11 -8 3 -22 9 -30 12 -10 4 -15 0 -15 -10 0 -10 7 -16 16 -14 10 2 19 -3 21
-9 3 -7 0 -13 -7 -13 -7 0 -7 -5 2 -14 7 -7 19 -11 26 -9 8 4 10 0 6 -11 -4
-10 2 -24 15 -35 11 -10 21 -21 21 -25 0 -4 10 -17 23 -30 12 -12 37 -41 56
-64 36 -45 51 -52 51 -24 0 13 2 14 9 3 7 -11 9 -11 14 0 4 11 6 11 6 1 1 -7
-6 -15 -14 -18 -23 -9 -18 -25 18 -58 18 -17 36 -39 40 -49 4 -10 11 -15 17
-12 5 3 10 -3 10 -14 0 -12 7 -21 15 -21 8 0 15 -6 15 -14 0 -8 7 -16 15 -20
8 -3 15 -12 15 -21 0 -21 39 -19 47 3 4 9 23 34 42 56 20 21 44 47 54 57 9 10
17 21 17 24 0 3 12 18 28 34 42 43 102 111 102 116 0 7 30 42 83 98 26 27 47
51 47 53 0 5 29 41 53 66 9 10 17 20 17 23 0 3 12 18 28 33 47 48 82 91 82
102 0 5 5 10 11 10 11 0 39 25 39 35 0 8 63 89 73 93 4 2 7 8 7 13 0 10 16 29
66 82 17 18 33 41 37 50 3 9 11 17 17 17 5 0 10 5 10 10 0 6 10 21 23 33 13
12 34 38 47 57 14 19 35 45 47 56 13 12 23 25 23 29 0 4 11 18 25 31 14 13 25
25 25 28 0 6 24 37 48 61 6 8 12 18 12 24 0 6 4 11 10 11 5 0 12 11 16 25 3
14 12 25 20 25 8 0 14 4 14 9 0 6 14 25 30 43 17 18 33 41 36 50 3 10 10 18
15 18 5 0 9 7 9 15 0 8 5 15 10 15 6 0 10 7 10 15 0 8 5 15 10 15 6 0 10 7 10
15 0 8 7 15 15 15 8 0 15 7 15 15 0 9 7 18 15 21 8 4 15 12 15 19 0 8 14 29
30 47 17 18 30 37 30 42 0 5 11 19 24 31 13 12 27 31 30 43 4 11 13 23 21 26
8 3 15 13 15 21 0 9 6 22 13 29 6 8 19 24 27 36 8 12 21 28 28 36 6 7 12 17
12 23 0 6 5 11 10 11 6 0 10 9 10 19 0 10 7 22 16 25 9 4 14 9 11 12 -3 3 3
21 14 40 10 19 19 43 19 54 0 11 5 20 10 20 6 0 10 11 10 25 0 14 4 25 9 25 5
0 12 13 16 30 4 16 11 32 16 35 5 4 9 15 9 26 0 10 5 19 10 19 6 0 10 9 10 20
0 11 5 20 10 20 6 0 10 7 10 15 0 8 5 15 10 15 6 0 10 11 10 25 0 14 5 25 10
25 6 0 10 11 10 25 0 14 6 25 13 25 6 0 23 25 36 55 14 30 28 55 31 55 3 0 14
20 24 45 11 25 25 50 33 56 7 6 13 22 13 34 0 13 7 25 15 29 8 3 15 17 15 31
0 16 6 25 15 25 8 0 15 5 15 11 0 6 14 40 30 76 17 35 30 71 30 79 0 8 5 14
10 14 6 0 10 9 10 19 0 11 7 26 15 35 8 8 15 26 15 40 0 14 4 26 10 26 5 0 12
16 16 35 3 19 10 35 14 35 4 0 11 16 15 36 3 20 12 50 20 68 7 17 21 60 31 96
9 36 21 69 26 74 4 6 8 18 8 28 0 10 5 18 10 18 6 0 10 8 10 18 0 10 3 21 6
24 5 6 77 -10 150 -33 17 -5 40 -9 52 -9 12 0 22 -4 22 -10 0 -5 15 -10 33
-10 18 0 38 -5 44 -11 7 -7 29 -15 50 -18 33 -6 38 -10 36 -31 -2 -31 -7 -52
-15 -65 -3 -6 -9 -28 -13 -49 -5 -22 -14 -51 -21 -65 -8 -14 -14 -34 -14 -44
0 -10 -4 -15 -10 -12 -6 4 -10 -7 -10 -27 0 -18 -7 -46 -15 -62 -8 -15 -15
-37 -15 -47 0 -11 -4 -19 -10 -19 -5 0 -10 -11 -10 -24 0 -14 -4 -27 -9 -30
-5 -4 -12 -29 -16 -56 -4 -28 -10 -50 -15 -50 -4 0 -11 -17 -14 -37 -8 -44
-36 -124 -48 -138 -4 -5 -8 -18 -8 -30 0 -12 -4 -25 -9 -30 -6 -6 -14 -39 -20
-74 -9 -57 -8 -66 7 -77 9 -7 24 -14 33 -14 9 0 19 -7 23 -15 3 -8 16 -15 30
-15 14 0 27 -4 30 -9 3 -4 33 -14 66 -22 33 -7 60 -17 60 -21 0 -4 10 -8 23
-8 13 0 27 -4 33 -9 5 -5 32 -11 59 -12 55 -4 95 19 95 53 0 10 5 18 10 18 6
0 10 11 10 25 0 14 5 25 10 25 6 0 10 9 10 20 0 11 4 28 9 38 21 40 31 71 47
145 10 42 21 77 26 77 4 0 8 18 8 41 0 24 4 38 10 34 6 -4 10 7 10 27 1 18 7
44 15 58 8 14 14 42 15 63 0 20 5 37 10 37 6 0 10 14 10 30 0 17 4 30 10 30 5
0 12 17 15 38 4 20 10 46 15 57 10 23 29 100 33 133 2 12 9 28 15 34 7 7 12
27 12 45 0 18 5 33 10 33 6 0 10 7 10 15 0 8 6 34 14 57 8 24 26 84 41 133 15
50 31 98 36 107 5 10 9 28 9 41 0 13 4 27 9 33 11 11 41 115 41 142 0 11 5 22
11 24 5 2 13 22 16 46 3 23 10 42 14 42 5 0 9 10 9 23 0 12 7 32 15 44 8 12
16 37 17 57 2 20 6 36 10 36 3 0 9 15 13 33 9 43 38 131 46 137 3 3 13 34 22
69 15 59 15 66 0 92 -10 16 -29 31 -45 34 -15 4 -30 11 -33 16 -4 5 -19 9 -36
9 -16 0 -29 5 -29 10 0 6 -14 10 -31 10 -17 0 -28 4 -24 10 4 6 -8 10 -30 10
-20 0 -46 7 -59 15 -52 34 -156 28 -156 -10 0 -8 -4 -15 -10 -15 -5 0 -10 -13
-10 -29 0 -17 -4 -33 -10 -36 -5 -3 -10 -17 -10 -31 0 -13 -4 -24 -10 -24 -5
0 -10 -11 -10 -25 0 -14 -4 -25 -8 -25 -5 0 -15 -26 -22 -57 -7 -32 -17 -63
-21 -69 -5 -6 -11 -36 -15 -67 -4 -31 -10 -54 -15 -52 -4 3 -11 -15 -14 -40
-4 -25 -11 -45 -16 -45 -5 0 -9 -11 -9 -24 0 -13 -7 -41 -16 -62 -20 -48 -45
-136 -53 -189 -5 -36 -9 -40 -38 -43 -19 -2 -33 1 -33 7 0 6 -16 11 -35 11
-19 0 -35 4 -35 9 0 5 -12 11 -27 14 -59 12 -88 20 -93 26 -5 6 -68 26 -119
37 -13 3 -32 9 -42 14 -10 6 -29 10 -43 10 -14 0 -26 5 -26 10 0 6 -18 10 -40
10 -22 0 -40 5 -40 10 0 6 -16 10 -35 10 -19 0 -35 5 -35 10 0 6 -15 10 -34
10 -19 0 -38 5 -41 10 -3 6 -22 10 -41 10 -19 0 -34 5 -34 10 0 6 -15 10 -34
10 -19 0 -37 4 -41 9 -3 5 -31 13 -63 17 -31 3 -61 10 -67 14 -5 4 -28 11 -50
15 -22 4 -60 11 -85 16 -25 4 -74 14 -110 21 -36 6 -67 15 -70 19 -3 3 -30 9
-60 13 -98 11 -135 18 -142 29 -10 15 -57 -8 -66 -32 -4 -11 -11 -19 -16 -18
-5 1 -18 -13 -28 -31 -10 -18 -29 -45 -43 -60 -14 -15 -25 -31 -25 -36 0 -4
-14 -25 -31 -45 -16 -20 -40 -48 -52 -62 -12 -14 -28 -35 -35 -47 -11 -19 -10
-22 7 -22 11 0 21 -5 23 -11 2 -7 40 -15 83 -19 130 -12 329 -50 344 -65 11
-11 12 -20 4 -37 -33 -69 -53 -120 -53 -133 0 -8 -4 -15 -10 -15 -5 0 -10 -9
-10 -20 0 -11 -4 -20 -8 -20 -4 0 -9 -12 -10 -27 -1 -16 -7 -29 -12 -31 -6 -2
-10 -17 -10 -33 0 -19 -5 -29 -15 -29 -10 0 -15 -10 -15 -29 0 -16 -6 -31 -15
-35 -9 -3 -15 -19 -15 -41 0 -24 -4 -35 -15 -35 -8 0 -15 -9 -15 -19 0 -11 -5
-23 -10 -26 -6 -4 -8 -10 -5 -15 3 -4 -1 -10 -8 -13 -7 -3 -24 -27 -37 -53
-14 -27 -28 -50 -32 -52 -5 -2 -8 -12 -8 -23 0 -10 -9 -28 -20 -39 -11 -11
-20 -24 -20 -30 0 -5 -5 -10 -11 -10 -5 0 -7 -5 -4 -10 3 -6 -1 -13 -9 -16 -9
-3 -16 -12 -16 -20 0 -8 -4 -14 -9 -14 -5 0 -12 -13 -16 -30 -4 -16 -15 -32
-26 -35 -10 -4 -19 -13 -19 -21 0 -8 -9 -23 -20 -34 -11 -11 -20 -24 -20 -30
0 -5 -4 -10 -10 -10 -5 0 -10 -4 -10 -10 0 -9 -19 -35 -47 -65 -7 -8 -13 -18
-13 -24 0 -6 -4 -11 -10 -11 -5 0 -10 -7 -10 -15 0 -8 -6 -15 -13 -15 -7 0
-21 -16 -31 -35 -11 -19 -23 -35 -28 -35 -4 0 -8 -5 -8 -11 0 -6 -6 -16 -12
-23 -7 -7 -22 -25 -33 -39 -11 -15 -26 -27 -33 -27 -9 0 -12 -6 -8 -15 3 -9 0
-15 -9 -15 -8 0 -15 -7 -15 -15 0 -8 -4 -15 -10 -15 -5 0 -10 -5 -10 -11 0 -7
-11 -22 -25 -35 -14 -13 -25 -28 -25 -34 0 -5 -7 -10 -15 -10 -8 0 -15 -5 -15
-11 0 -14 -26 -39 -40 -39 -7 0 -10 -7 -6 -15 3 -9 0 -15 -9 -15 -8 0 -15 -9
-15 -20 0 -11 -5 -20 -10 -20 -11 0 -26 -15 -92 -93 -63 -73 -87 -97 -98 -97
-5 0 -10 -5 -10 -11 0 -6 -16 -25 -35 -43 -19 -19 -35 -38 -35 -45 0 -6 -7
-11 -15 -11 -8 0 -15 -4 -15 -9 0 -11 -128 -141 -138 -141 -4 0 -12 -10 -17
-22 -15 -34 -60 -36 -91 -3 -13 14 -24 31 -24 36 0 6 -4 8 -8 5 -9 -6 -42 29
-42 44 0 6 -7 10 -15 10 -8 0 -15 7 -15 15 0 8 -7 15 -15 15 -8 0 -15 3 -15 8
0 12 -47 62 -59 62 -6 0 -11 5 -11 11 0 7 -16 26 -35 45 -19 18 -35 37 -35 43
0 6 -5 11 -11 11 -11 0 -39 24 -39 34 0 3 -20 26 -45 50 -25 25 -45 50 -45 56
0 5 -5 10 -11 10 -14 0 -48 41 -49 58 0 6 -7 12 -15 12 -8 0 -15 5 -15 10 0 9
-31 45 -112 132 -16 16 -28 33 -28 38 0 6 -4 10 -10 10 -5 0 -10 5 -10 10 0 6
-11 21 -25 34 -14 13 -25 28 -25 35 0 6 -4 11 -9 11 -5 0 -19 15 -30 33 -11
17 -31 43 -43 57 -13 14 -35 41 -48 60 -13 19 -35 46 -47 60 -13 14 -23 30
-23 37 0 7 -3 13 -7 13 -5 0 -21 20 -36 45 -16 25 -33 45 -38 45 -5 0 -9 7 -9
15 0 8 -4 15 -10 15 -5 0 -10 7 -10 15 0 8 -4 15 -10 15 -5 0 -10 8 -10 18 0
9 -11 26 -25 36 -14 10 -25 27 -25 37 0 11 -4 19 -8 19 -4 0 -13 12 -19 28
-15 36 -46 86 -55 90 -5 2 -8 8 -8 13 0 6 -16 34 -35 64 -19 30 -31 55 -27 55
4 0 0 6 -8 13 -8 7 -16 21 -18 32 -2 11 -10 25 -18 31 -8 6 -14 21 -14 33 0
12 -4 19 -10 16 -6 -4 -10 5 -10 19 0 14 -4 26 -9 26 -5 0 -15 20 -22 45 -7
25 -16 45 -20 45 -3 0 -12 21 -19 48 -7 26 -16 52 -19 57 -11 19 -31 80 -31
96 0 21 27 30 110 40 150 16 246 32 255 40 5 5 38 9 73 9 58 0 67 -3 88 -27
13 -16 24 -31 24 -35 0 -5 6 -8 14 -8 8 0 16 -8 18 -17 2 -12 6 -14 11 -6 4 6
1 18 -7 26 -8 8 -11 19 -6 26 11 18 21 -1 22 -42 0 -17 9 -40 19 -50 11 -10
19 -22 19 -27 0 -6 7 -10 15 -10 8 0 15 -5 15 -11 0 -11 24 -39 34 -39 13 0 5
27 -14 43 -11 9 -17 23 -14 32 8 19 25 9 22 -13 -2 -10 3 -17 13 -16 19 1 20
-37 1 -49 -10 -6 -9 -11 2 -23 18 -17 23 -18 29 -1 2 6 2 2 0 -11 -2 -14 2
-25 12 -28 8 -4 15 -12 15 -20 0 -8 7 -14 15 -14 8 0 15 -7 15 -15 0 -8 5 -15
10 -15 6 0 10 -7 10 -15 0 -8 7 -15 15 -15 8 0 15 -7 15 -15 0 -8 5 -15 10
-15 6 0 10 -5 10 -11 0 -17 24 -36 42 -33 10 1 15 -3 11 -12 -8 -20 7 -39 19
-23 7 10 8 8 3 -8 -3 -12 -1 -24 5 -28 5 -3 10 -1 10 4 0 6 4 11 9 11 5 0 7
-8 4 -19 -2 -10 2 -25 11 -33 8 -9 12 -18 9 -22 -4 -3 1 -6 10 -6 9 0 17 -6
17 -14 0 -10 13 -13 46 -11 41 1 44 0 29 -11 -14 -10 -22 -11 -32 -3 -10 9
-13 7 -13 -10 0 -17 4 -21 19 -16 16 5 18 2 14 -15 -4 -14 -1 -20 11 -20 10 0
13 -6 10 -15 -4 -10 0 -15 11 -15 9 0 15 -6 12 -12 -2 -7 8 -24 22 -37 14 -14
26 -29 26 -35 0 -6 8 -10 16 -8 13 2 15 -4 11 -25 -4 -22 -2 -25 12 -20 11 5
16 2 14 -7 -2 -8 12 -30 30 -50 17 -19 32 -40 32 -46 0 -5 5 -10 10 -10 6 0
10 -4 10 -10 0 -5 13 -22 29 -37 16 -16 30 -32 31 -38 3 -15 10 -20 10 -7 0
18 27 14 34 -4 5 -14 4 -15 -9 -4 -12 10 -15 10 -15 -4 0 -9 7 -16 16 -16 9 0
14 -5 12 -12 -5 -13 26 -48 42 -48 6 0 10 -5 10 -11 0 -5 -5 -7 -11 -3 -6 3
-4 -7 5 -24 12 -23 21 -29 36 -25 11 3 20 11 20 17 0 13 58 129 69 136 4 3 13
21 21 40 8 19 20 41 27 48 7 7 13 20 13 28 0 8 4 14 8 14 5 0 14 16 22 35 8
19 17 35 22 35 4 0 8 7 8 15 0 8 5 15 10 15 6 0 10 9 10 20 0 11 5 20 10 20 6
0 10 9 10 20 0 11 5 20 10 20 6 0 10 7 10 15 0 8 5 15 10 15 6 0 10 7 10 15 0
8 4 15 9 15 5 0 11 8 15 18 8 23 47 86 69 112 9 11 17 27 17 35 0 8 4 15 8 15
5 0 14 16 22 35 8 19 17 35 22 35 4 0 16 18 26 40 10 22 21 37 25 34 4 -4 7 2
7 14 0 11 6 25 13 29 7 4 21 25 30 45 10 20 23 43 30 50 13 15 27 38 62 105
13 23 26 39 29 36 3 -4 6 3 6 15 0 12 5 22 10 22 6 0 10 9 10 21 0 11 5 17 10
14 6 -3 10 3 10 15 0 12 5 18 10 15 6 -3 10 3 10 14 0 12 5 21 10 21 6 0 10 7
10 15 0 8 5 15 10 15 6 0 10 5 10 10 0 6 8 19 18 29 32 37 42 50 42 61 0 5 5
10 10 10 6 0 10 7 10 15 0 8 5 15 10 15 6 0 10 6 10 14 0 8 7 16 15 20 8 3 15
10 15 16 0 10 20 37 53 72 9 10 17 23 17 28 0 6 5 10 10 10 6 0 10 4 10 10 0
10 21 39 58 77 12 13 22 29 22 36 1 17 25 47 39 47 6 0 11 6 11 14 0 11 32 58
72 105 7 8 14 41 16 73 3 32 8 58 13 58 5 0 9 6 9 13 0 8 9 25 20 38 33 39
143 160 173 190 15 16 27 32 27 36 0 11 43 48 53 45 4 -1 7 5 7 13 0 8 5 15
10 15 6 0 10 7 10 15 0 8 5 15 11 15 10 0 39 24 39 33 0 3 46 51 103 108 56
57 101 106 100 110 -1 4 12 14 30 23 18 8 29 16 25 16 -8 0 40 50 48 50 3 0
34 29 69 65 35 36 68 65 74 65 6 0 11 4 11 9 0 5 9 13 20 16 11 3 20 12 20 18
0 7 15 23 32 37 18 14 40 33 50 43 10 9 22 17 26 17 4 0 14 9 22 20 8 11 18
20 23 20 5 0 24 16 43 35 18 19 37 35 40 35 4 0 17 11 30 25 13 14 25 25 28
25 6 0 45 32 72 58 7 6 17 12 22 12 6 0 12 7 16 15 3 8 11 15 18 15 8 0 20 9
28 20 8 11 20 20 28 20 7 0 10 5 7 10 -3 6 3 10 13 10 11 0 22 7 26 15 3 8 10
15 16 15 12 0 40 24 40 34 0 11 -19 6 -34 -9z m-290 -158 c4 -4 -5 -7 -19 -7
-15 0 -27 4 -27 10 0 11 35 8 46 -3z m-136 -77 c0 -5 -5 -10 -11 -10 -5 0 -7
5 -4 10 3 6 8 10 11 10 2 0 4 -4 4 -10z m-33 -24 c3 -2 -12 -4 -31 -4 -20 0
-36 3 -36 8 0 7 59 4 67 -4z m-112 -16 c3 -5 1 -10 -4 -10 -6 0 -11 5 -11 10
0 6 2 10 4 10 3 0 8 -4 11 -10z m60 -10 c3 -5 2 -10 -4 -10 -5 0 -13 5 -16 10
-3 6 -2 10 4 10 5 0 13 -4 16 -10z m-31 -25 c-4 -8 -7 -15 -9 -15 -2 0 -5 7
-9 15 -3 9 0 15 9 15 9 0 12 -6 9 -15z m-60 -40 c-4 -8 -8 -15 -10 -15 -2 0
-4 7 -4 15 0 8 4 15 10 15 5 0 7 -7 4 -15z m-31 -19 c4 -10 1 -13 -9 -9 -15 6
-19 23 -5 23 5 0 11 -7 14 -14z m-38 -17 c-4 -5 2 -9 12 -10 12 0 9 -4 -10
-11 -15 -5 -25 -13 -22 -18 3 -4 -5 -6 -17 -2 -16 4 -18 7 -8 10 20 7 40 35
33 46 -4 5 -1 6 6 2 6 -4 9 -12 6 -17z m-85 -9 c0 -5 -3 -10 -7 -10 -5 0 -18
-3 -30 -6 -14 -4 -23 -2 -23 5 0 7 4 10 8 7 4 -2 14 -1 22 5 20 12 30 11 30
-1z m40 0 c0 -5 -5 -10 -11 -10 -5 0 -7 5 -4 10 3 6 8 10 11 10 2 0 4 -4 4
-10z m-13 -48 c-9 -2 -15 -8 -12 -13 4 -5 -1 -9 -9 -9 -9 0 -16 -4 -16 -10 0
-5 -10 -10 -21 -10 -18 0 -19 2 -9 15 7 8 19 15 27 15 7 0 16 6 19 14 3 9 12
12 22 8 16 -6 15 -7 -1 -10z m-153 -17 c-4 -8 -1 -15 7 -15 7 0 9 -3 6 -6 -4
-4 -14 -1 -22 6 -13 11 -13 15 -3 21 18 12 18 11 12 -6z m-14 -37 c0 -4 -7 -8
-15 -8 -8 0 -15 -6 -16 -12 0 -10 -2 -10 -6 0 -7 17 -19 15 -40 -6 -10 -10
-24 -17 -30 -16 -7 1 -19 2 -25 3 -7 1 5 8 27 16 22 8 41 19 43 24 4 12 62 11
62 -1z m75 -24 c-26 -24 -75 -33 -75 -14 0 6 3 9 8 8 4 -1 18 2 31 6 16 5 20
11 12 16 -7 4 1 7 19 8 l32 1 -27 -25z m-82 -50 c11 -11 -3 -24 -18 -18 -8 4
-12 10 -9 15 6 11 18 12 27 3z m-208 -44 c3 -5 2 -10 -4 -10 -5 0 -13 5 -16
10 -3 6 -2 10 4 10 5 0 13 -4 16 -10z m160 0 c3 -5 1 -10 -4 -10 -6 0 -11 5
-11 10 0 6 2 10 4 10 3 0 8 -4 11 -10z m-45 -44 c0 -3 -4 -8 -10 -11 -5 -3
-10 -1 -10 4 0 6 5 11 10 11 6 0 10 -2 10 -4z m-41 -19 c-2 -1 -13 -9 -24 -17
-19 -14 -19 -14 -6 3 7 9 18 17 24 17 6 0 8 -1 6 -3z m-99 -101 c0 -9 -30 -14
-35 -6 -4 6 3 10 14 10 12 0 21 -2 21 -4z m-50 -26 c0 -5 -2 -10 -4 -10 -3 0
-8 5 -11 10 -3 6 -1 10 4 10 6 0 11 -4 11 -10z m-20 -21 c0 -15 -26 -39 -42
-39 -9 1 -7 5 5 14 9 7 17 18 17 25 0 6 5 11 10 11 6 0 10 -5 10 -11z m-60
-39 c0 -17 -5 -25 -12 -22 -5 1 -8 -8 -8 -20 0 -18 -2 -20 -9 -8 -6 8 -7 19
-3 25 4 5 7 13 8 18 3 15 4 17 14 17 6 0 10 -4 10 -10z m-47 -65 c-3 -8 -11
-15 -19 -15 -8 0 -14 -4 -14 -10 0 -5 -7 -10 -16 -10 -8 0 -13 -4 -9 -9 3 -5
1 -12 -5 -16 -23 -14 -8 21 22 51 33 32 52 36 41 9z m-163 -25 c0 -5 -4 -10
-10 -10 -5 0 -10 5 -10 10 0 6 5 10 10 10 6 0 10 -4 10 -10z m-40 -40 c0 -5
-5 -10 -11 -10 -5 0 -7 5 -4 10 3 6 8 10 11 10 2 0 4 -4 4 -10z m120 -3 c0
-10 -39 -47 -49 -47 -15 0 -14 7 7 29 15 17 42 28 42 18z m-60 -66 c0 -11 -31
-24 -39 -16 -3 3 1 10 9 15 19 12 30 12 30 1z m-40 -35 c0 -2 -7 -9 -15 -16
-12 -10 -15 -10 -15 4 0 9 7 16 15 16 8 0 15 -2 15 -4z m-75 -66 c3 -5 -1 -10
-10 -10 -9 0 -13 5 -10 10 3 6 8 10 10 10 2 0 7 -4 10 -10z m-15 -160 c0 -5
-7 -10 -15 -10 -8 0 -15 -7 -15 -15 0 -8 -9 -19 -20 -25 -11 -6 -18 -14 -16
-19 3 -4 -4 -14 -15 -21 -10 -8 -19 -20 -19 -28 0 -7 -4 -11 -9 -8 -5 4 -11 0
-14 -6 -2 -7 -7 -10 -11 -7 -3 3 7 20 24 37 16 18 30 35 30 38 0 4 9 15 21 25
11 10 18 22 15 28 -4 5 4 12 16 14 13 2 24 5 26 6 1 0 2 -3 2 -9z m-4303 -34
c-3 -8 -2 -29 3 -46 5 -19 5 -28 -1 -25 -5 4 -9 0 -9 -7 0 -8 -5 -6 -11 5 -5
9 -8 21 -5 26 12 19 -7 41 -35 41 -16 0 -29 5 -29 10 0 6 21 10 46 10 36 0 45
-3 41 -14z m-72 -26 c17 -11 24 -20 18 -20 -20 0 -28 4 -25 13 1 4 -7 7 -18 7
-11 0 -20 5 -20 10 0 15 11 12 45 -10z m3982 -32 c-3 -8 -6 -5 -6 6 -1 11 2
17 5 13 3 -3 4 -12 1 -19z m-4164 -5 c-4 -10 -9 -11 -19 -2 -19 15 -18 18 5
16 11 -1 17 -6 14 -14z m-98 -23 c3 -5 1 -10 -4 -10 -6 0 -11 5 -11 10 0 6 2
10 4 10 3 0 8 -4 11 -10z m45 0 c0 -5 -4 -10 -10 -10 -5 0 -10 5 -10 10 0 6 5
10 10 10 6 0 10 -4 10 -10z m324 -30 c-6 -6 -10 -2 -11 12 -2 16 1 18 10 9 7
-7 8 -14 1 -21z m-384 -32 c0 -10 -4 -18 -9 -18 -10 0 -21 47 -13 55 8 7 22
-17 22 -37z m4230 22 c0 -5 -2 -10 -4 -10 -3 0 -8 5 -11 10 -3 6 -1 10 4 10 6
0 11 -4 11 -10z m296 -6 c-9 -8 -20 -12 -26 -9 -15 9 -2 25 21 25 19 0 19 -1
5 -16z m-331 -13 c3 -5 1 -12 -5 -16 -5 -3 -10 1 -10 9 0 18 6 21 15 7z
m-3777 -47 c-3 -14 -5 -12 -10 9 -3 19 -2 25 4 19 6 -6 8 -18 6 -28z m4042
-24 c0 -5 -4 -10 -10 -10 -5 0 -10 5 -10 10 0 6 5 10 10 10 6 0 10 -4 10 -10z
m-30 -30 c0 -5 -2 -10 -4 -10 -3 0 -8 5 -11 10 -3 6 -1 10 4 10 6 0 11 -4 11
-10z m-74 -57 c-10 -10 -19 5 -10 18 6 11 8 11 12 0 2 -7 1 -15 -2 -18z m44
17 c-8 -5 -19 -10 -25 -10 -5 0 -3 5 5 10 8 5 20 10 25 10 6 0 3 -5 -5 -10z
m-45 -46 c-9 -7 -23 -10 -31 -7 -24 9 -15 20 17 20 28 0 30 -2 14 -13z m-295
2 c0 -1 -11 -15 -25 -30 -14 -15 -25 -25 -25 -22 0 2 -3 11 -6 20 -4 11 -1 16
10 16 9 0 16 5 16 10 0 6 7 10 15 10 8 0 15 -2 15 -4z m-3600 -22 c0 -8 -5
-12 -10 -9 -6 4 -8 11 -5 16 9 14 15 11 15 -7z m-413 -26 c-3 -7 -5 -2 -5 12
0 14 2 19 5 13 2 -7 2 -19 0 -25z m4288 14 c-6 -4 -20 -19 -31 -33 -16 -22
-22 -24 -32 -13 -11 12 -9 14 9 14 14 0 19 5 16 14 -7 18 1 26 27 26 12 0 16
-4 11 -8z m-3855 -16 c0 -8 -7 -16 -15 -20 -9 -3 -15 0 -15 10 0 8 5 12 10 9
6 -3 10 -1 10 4 0 6 2 11 5 11 3 0 5 -6 5 -14z m3519 -38 c1 -4 -8 -6 -19 -5
-20 1 -29 17 -10 17 6 0 10 8 11 18 0 14 2 14 9 -3 5 -11 9 -23 9 -27z m-3910
-38 c0 -10 -3 -9 -11 5 -16 30 -18 31 -28 15 -7 -11 -10 -11 -10 -2 0 7 6 15
14 18 8 3 13 13 10 22 -2 9 2 4 10 -13 8 -16 15 -37 15 -45z m2920 36 c9 -11
9 -16 0 -22 -8 -4 -9 -3 -5 4 9 15 -10 16 -154 7 -19 -1 -39 0 -45 4 -5 3 31
9 80 12 50 3 95 6 101 7 6 1 17 -4 23 -12z m1041 4 c0 -5 -4 -10 -10 -10 -5 0
-10 5 -10 10 0 6 5 10 10 10 6 0 10 -4 10 -10z m220 -22 c0 -5 -4 -6 -10 -3
-6 3 -7 -1 -4 -9 3 -9 1 -16 -5 -16 -6 0 -11 4 -11 9 0 5 -3 16 -6 24 -4 12 0
14 15 10 12 -3 21 -10 21 -15z m-1547 -5 c3 -5 -6 -8 -19 -8 -13 0 -24 3 -24
8 0 4 9 7 19 7 11 0 22 -3 24 -7z m1237 3 c0 -2 -7 -6 -15 -10 -8 -3 -15 -1
-15 4 0 6 7 10 15 10 8 0 15 -2 15 -4z m240 -12 c0 -8 -4 -12 -10 -9 -5 3 -10
10 -10 16 0 5 5 9 10 9 6 0 10 -7 10 -16z m-1585 -4 c4 -6 -19 -9 -62 -8 l-68
1 55 7 c30 4 58 7 62 8 4 1 10 -2 13 -8z m42 4 c-3 -3 -12 -4 -19 -1 -8 3 -5
6 6 6 11 1 17 -2 13 -5z m-193 -14 c-7 -7 -19 -7 -35 -1 -23 9 -22 10 11 10
23 1 31 -2 24 -9z m1461 -30 c-6 -9 -9 -9 -16 1 -10 17 0 34 13 21 6 -6 7 -16
3 -22z m310 21 c3 -5 1 -12 -5 -16 -5 -3 -10 1 -10 9 0 18 6 21 15 7z m-1232
-16 c0 -6 -7 -11 -16 -13 -12 -3 -15 1 -11 13 7 17 25 17 27 0z m-595 -10 c3
-3 -26 -4 -64 -4 -54 1 -62 3 -34 8 37 8 89 5 98 -4z m1802 5 c0 -5 -4 -10
-10 -10 -5 0 -10 5 -10 10 0 6 5 10 10 10 6 0 10 -4 10 -10z m-4040 -8 c0 -13
-12 -22 -22 -16 -10 6 -1 24 13 24 5 0 9 -4 9 -8z m2095 -2 c-3 -5 -18 -10
-33 -9 l-27 1 25 8 c35 11 42 11 35 0z m-70 -10 c3 -5 -1 -10 -9 -10 -9 0 -16
5 -16 10 0 6 4 10 9 10 6 0 13 -4 16 -10z m945 0 c0 -5 -5 -10 -11 -10 -5 0
-7 5 -4 10 3 6 8 10 11 10 2 0 4 -4 4 -10z m750 0 c0 -5 -8 -10 -17 -10 -15 0
-16 2 -3 10 19 12 20 12 20 0z m-1734 -8 c-5 -8 -76 -4 -76 4 0 2 18 4 41 4
22 0 38 -4 35 -8z m808 -7 c-4 -8 -10 -12 -15 -9 -14 8 -10 24 6 24 9 0 12 -6
9 -15z m1229 -3 c-10 -10 -20 -14 -22 -9 -2 5 3 13 10 18 24 15 30 10 12 -9z
m-3668 -12 c3 -5 -1 -10 -10 -10 -9 0 -13 5 -10 10 3 6 8 10 10 10 2 0 7 -4
10 -10z m-405 -10 c0 -5 -5 -10 -11 -10 -5 0 -7 5 -4 10 3 6 8 10 11 10 2 0 4
-4 4 -10z m2340 0 c0 -5 -2 -10 -4 -10 -3 0 -8 5 -11 10 -3 6 -1 10 4 10 6 0
11 -4 11 -10z m1400 -6 c0 -8 -4 -12 -10 -9 -5 3 -10 10 -10 16 0 5 5 9 10 9
6 0 10 -7 10 -16z m-720 -4 c0 -5 -5 -10 -11 -10 -5 0 -7 5 -4 10 3 6 8 10 11
10 2 0 4 -4 4 -10z m1011 -14 c-5 -6 -10 -15 -11 -21 -4 -24 -9 -15 -7 12 1
20 6 29 15 26 8 -4 9 -9 3 -17z m-2296 4 c3 -5 -1 -10 -9 -10 -9 0 -16 5 -16
10 0 6 4 10 9 10 6 0 13 -4 16 -10z m48 3 c-7 -2 -19 -2 -25 0 -7 3 -2 5 12 5
14 0 19 -2 13 -5z m-1353 -34 c0 -19 -1 -19 -16 -5 -8 9 -12 20 -9 26 9 15 25
2 25 -21z m3277 9 c-3 -8 -6 -5 -6 6 -1 11 2 17 5 13 3 -3 4 -12 1 -19z
m-2087 2 c0 -5 -7 -10 -16 -10 -8 0 -12 5 -9 10 3 6 10 10 16 10 5 0 9 -4 9
-10z m47 4 c-3 -3 -12 -4 -19 -1 -8 3 -5 6 6 6 11 1 17 -2 13 -5z m1393 -18
c0 -11 -19 -15 -25 -6 -3 5 1 10 9 10 9 0 16 -2 16 -4z m-1585 -26 c3 -5 -1
-10 -10 -10 -9 0 -13 5 -10 10 3 6 8 10 10 10 2 0 7 -4 10 -10z m1635 -42 c0
-14 -15 -9 -38 12 -31 29 -27 34 8 13 17 -9 30 -21 30 -25z m-95 11 c11 -16 1
-19 -13 -3 -7 8 -8 14 -3 14 5 0 13 -5 16 -11z m-2601 -14 c3 -8 1 -15 -4 -15
-6 0 -10 7 -10 15 0 8 2 15 4 15 2 0 6 -7 10 -15z m3226 5 c0 -5 -4 -10 -10
-10 -5 0 -10 5 -10 10 0 6 5 10 10 10 6 0 10 -4 10 -10z m320 -4 c0 -3 -4 -8
-10 -11 -5 -3 -10 -1 -10 4 0 6 5 11 10 11 6 0 10 -2 10 -4z m-757 -32 c-5
-13 -1 -15 15 -9 13 4 22 2 22 -4 0 -12 -30 -14 -45 -3 -9 6 -11 16 -6 38 0 3
5 3 11 -1 5 -3 6 -13 3 -21z m-2033 -3 c-8 -5 -34 -12 -58 -16 -24 -4 -56 -13
-70 -21 -28 -14 -52 -18 -52 -8 0 15 29 29 64 31 22 2 44 7 50 13 5 5 26 10
46 10 24 -1 30 -3 20 -9z m2760 -1 c0 -5 -5 -10 -11 -10 -5 0 -7 5 -4 10 3 6
8 10 11 10 2 0 4 -4 4 -10z m-845 -10 c17 -7 14 -9 -13 -9 -20 -1 -31 3 -27 9
7 12 13 12 40 0z m496 -31 c-29 -28 -46 -23 -19 5 13 13 27 21 31 19 5 -3 -1
-14 -12 -24z m-3521 9 c0 -7 -5 -20 -10 -28 -8 -12 -10 -9 -10 13 0 15 5 27
10 27 6 0 10 -6 10 -12z m3832 -10 c-7 -7 -12 -8 -12 -2 0 14 12 26 19 19 2
-3 -1 -11 -7 -17z m-3387 -8 c3 -5 1 -10 -4 -10 -6 0 -11 5 -11 10 0 6 2 10 4
10 3 0 8 -4 11 -10z m1960 0 c3 -5 -1 -10 -9 -10 -9 0 -16 5 -16 10 0 6 4 10
9 10 6 0 13 -4 16 -10z m845 -20 c0 -5 -5 -10 -11 -10 -5 0 -7 5 -4 10 3 6 8
10 11 10 2 0 4 -4 4 -10z m290 0 c0 -5 -2 -10 -4 -10 -3 0 -8 5 -11 10 -3 6
-1 10 4 10 6 0 11 -4 11 -10z m-1330 -10 c0 -5 -10 -10 -22 -10 -19 0 -20 2
-8 10 19 13 30 13 30 0z m77 4 c-3 -3 -12 -4 -19 -1 -8 3 -5 6 6 6 11 1 17 -2
13 -5z m1213 -4 c0 -5 -2 -10 -4 -10 -3 0 -8 5 -11 10 -3 6 -1 10 4 10 6 0 11
-4 11 -10z m-3480 -21 c0 -6 -4 -7 -10 -4 -5 3 -10 11 -10 16 0 6 5 7 10 4 6
-3 10 -11 10 -16z m2096 12 c-4 -5 0 -12 6 -15 7 -3 -8 -4 -33 -4 -25 1 -50
-2 -57 -6 -8 -5 -10 -2 -6 8 4 10 18 15 40 14 19 -1 37 2 41 5 9 10 15 8 9 -2z
m131 3 c-3 -3 -12 -4 -19 -1 -8 3 -5 6 6 6 11 1 17 -2 13 -5z m1287 -27 c17
-28 17 -28 -1 -19 -10 6 -19 20 -20 32 -1 12 -1 21 1 19 1 -2 10 -17 20 -32z
m266 23 c0 -5 -8 -10 -17 -10 -15 0 -16 2 -3 10 19 12 20 12 20 0z m-1840 -20
c0 -5 -2 -10 -4 -10 -3 0 -8 5 -11 10 -3 6 -1 10 4 10 6 0 11 -4 11 -10z m40
-4 c-7 -7 -14 -6 -21 1 -9 9 -7 12 9 10 14 -1 18 -5 12 -11z m500 4 c0 -5 -4
-10 -10 -10 -5 0 -10 5 -10 10 0 6 5 10 10 10 6 0 10 -4 10 -10z m1257 -27
c-3 -10 -5 -4 -5 12 0 17 2 24 5 18 2 -7 2 -21 0 -30z m-437 -13 c0 -5 -2 -10
-4 -10 -3 0 -8 5 -11 10 -3 6 -1 10 4 10 6 0 11 -4 11 -10z m412 -4 c3 -5 4
-15 1 -23 -4 -10 -10 -8 -24 8 -11 12 -19 23 -19 24 0 7 36 -1 42 -9z m-3162
-6 c12 -8 11 -10 -7 -10 -13 0 -23 5 -23 10 0 13 11 13 30 0z m2934 -6 c8 -21
8 -24 -5 -24 -5 0 -7 5 -4 10 3 6 1 10 -4 10 -6 0 -11 5 -11 10 0 16 17 12 24
-6z m-3458 -16 c0 -12 -6 -23 -12 -25 -7 -2 -10 6 -7 22 6 31 21 33 19 3z
m2542 13 c10 -6 10 -10 -2 -20 -18 -15 -37 -6 -29 14 6 17 12 18 31 6z m1112
-51 c-24 -15 -32 -12 -21 9 6 10 9 21 7 23 -1 3 4 -1 13 -9 14 -12 14 -15 1
-23z m-1099 -3 c-13 -13 -26 -3 -16 12 3 6 11 8 17 5 6 -4 6 -10 -1 -17z
m1052 -24 c-5 -12 -3 -14 7 -8 9 5 11 4 6 -4 -6 -9 -11 -9 -22 0 -18 15 -18
29 1 29 9 0 12 -6 8 -17z m-3583 -8 c0 -8 -4 -15 -10 -15 -5 0 -10 7 -10 15 0
8 5 15 10 15 6 0 10 -7 10 -15z m2630 -46 c0 -5 -4 -9 -10 -9 -5 0 -10 7 -10
16 0 8 5 12 10 9 6 -3 10 -10 10 -16z m940 9 c0 -7 -5 -20 -10 -28 -8 -12 -10
-9 -10 13 0 15 5 27 10 27 6 0 10 -6 10 -12z m-2090 -13 c0 -8 -2 -15 -4 -15
-2 0 -6 7 -10 15 -3 8 -1 15 4 15 6 0 10 -7 10 -15z m1455 -13 c-8 -8 -25 10
-19 20 4 6 9 5 15 -3 4 -7 6 -15 4 -17z m605 -20 c0 -8 -1 -13 -3 -11 -1 2 -9
12 -16 22 -12 15 -12 17 3 11 9 -3 16 -13 16 -22z m-560 -23 c0 -6 -4 -7 -10
-4 -5 3 -10 11 -10 16 0 6 5 7 10 4 6 -3 10 -11 10 -16z m543 6 c4 -8 2 -17
-3 -20 -6 -4 -10 3 -10 14 0 25 6 27 13 6z m-413 -22 c0 -19 -13 -9 -16 12 -1
8 2 13 7 9 5 -3 9 -12 9 -21z m-2251 4 c8 -11 6 -13 -12 -11 -12 1 -31 3 -42
4 -17 2 -16 3 5 10 36 11 36 11 49 -3z m2641 -13 c0 -2 -7 -4 -15 -4 -8 0 -15
4 -15 10 0 5 7 7 15 4 8 -4 15 -8 15 -10z m-3450 -14 c0 -5 -5 -10 -11 -10 -5
0 -7 5 -4 10 3 6 8 10 11 10 2 0 4 -4 4 -10z m663 -16 c-6 -16 -73 -28 -86
-15 -7 7 -1 12 19 16 16 4 34 8 39 9 22 6 33 2 28 -10z m320 -51 c-3 -7 -9
-13 -14 -13 -11 0 -12 34 -2 43 9 10 22 -13 16 -30z m2162 27 c3 -5 -1 -10
-10 -10 -9 0 -13 5 -10 10 3 6 8 10 10 10 2 0 7 -4 10 -10z m-2687 -22 c-2
-13 -11 -24 -20 -26 -14 -3 -15 0 -5 22 15 32 30 34 25 4z m2960 10 c-9 -7
-18 -20 -21 -28 -4 -10 -6 -8 -6 7 -1 20 10 30 33 32 6 1 3 -5 -6 -11z m-1941
-20 c-3 -8 -6 -5 -6 6 -1 11 2 17 5 13 3 -3 4 -12 1 -19z m1533 2 c0 -5 -2
-10 -4 -10 -3 0 -8 5 -11 10 -3 6 -1 10 4 10 6 0 11 -4 11 -10z m170 0 c0 -5
-2 -10 -4 -10 -3 0 -8 5 -11 10 -3 6 -1 10 4 10 6 0 11 -4 11 -10z m-290 -20
c0 -5 -2 -10 -4 -10 -3 0 -8 5 -11 10 -3 6 -1 10 4 10 6 0 11 -4 11 -10z m326
-15 c3 -17 -5 -19 -26 -5 -13 8 -12 10 3 10 12 0 16 4 11 13 -4 6 -3 8 1 4 5
-4 10 -14 11 -22z m164 -1 c0 -8 -4 -14 -9 -14 -11 0 -22 26 -14 34 9 9 23 -3
23 -20z m-377 -4 c3 -11 1 -20 -4 -20 -5 0 -9 9 -9 20 0 11 2 20 4 20 2 0 6
-9 9 -20z m-2598 -10 c3 -5 1 -10 -4 -10 -6 0 -11 5 -11 10 0 6 2 10 4 10 3 0
8 -4 11 -10z m75 -65 c5 3 12 0 16 -6 4 -8 3 -9 -4 -5 -8 5 -12 -2 -13 -21 0
-25 -2 -23 -17 17 -13 34 -15 51 -7 67 9 20 10 19 13 -17 2 -22 7 -38 12 -35z
m505 65 c3 -5 1 -10 -4 -10 -6 0 -11 5 -11 10 0 6 2 10 4 10 3 0 8 -4 11 -10z
m2280 -9 c7 -12 -12 -24 -25 -16 -11 7 -4 25 10 25 5 0 11 -4 15 -9z m-202
-13 c14 -12 10 -78 -4 -78 -5 0 -9 13 -9 29 0 16 -3 36 -6 45 -7 19 2 21 19 4z
m256 -36 c-5 -2 -7 -8 -3 -13 3 -5 -3 -9 -13 -9 -10 0 -24 9 -31 20 -7 11 -8
20 -3 20 5 0 12 -7 15 -16 3 -8 10 -12 16 -9 7 4 7 12 0 25 -17 31 -11 37 10
10 10 -14 15 -27 9 -28z m-3274 0 c2 -14 -1 -19 -10 -16 -7 3 -11 14 -8 25 6
23 12 20 18 -9z m2744 14 c8 -10 9 -16 1 -21 -5 -3 -10 0 -10 9 0 8 -6 17 -12
19 -8 4 -9 6 -2 6 6 1 17 -5 23 -13z m-2376 -11 c-3 -9 -8 -14 -10 -11 -3 3
-2 9 2 15 9 16 15 13 8 -4z m2527 -5 c0 -5 -2 -10 -4 -10 -3 0 -8 5 -11 10 -3
6 -1 10 4 10 6 0 11 -4 11 -10z m56 -17 c-2 -9 -7 -18 -13 -20 -6 -2 -8 7 -6
21 6 28 23 27 19 -1z m99 7 c3 -5 1 -10 -4 -10 -6 0 -11 5 -11 10 0 6 2 10 4
10 3 0 8 -4 11 -10z m-255 -36 c0 -8 5 -14 10 -14 6 0 10 -7 10 -15 0 -8 5
-15 10 -15 6 0 9 3 9 8 -1 4 -1 14 0 22 1 12 3 12 11 -2 22 -37 -22 -67 -50
-33 -7 8 -9 15 -4 15 5 1 -1 9 -14 19 -14 12 -20 25 -16 35 5 13 9 14 20 5 8
-6 14 -18 14 -25z m-1813 4 c-3 -8 -6 -5 -6 6 -1 11 2 17 5 13 3 -3 4 -12 1
-19z m1893 6 c0 -8 -4 -12 -10 -9 -5 3 -10 10 -10 16 0 5 5 9 10 9 6 0 10 -7
10 -16z m-2863 -41 c-3 -10 -5 -4 -5 12 0 17 2 24 5 18 2 -7 2 -21 0 -30z
m1498 3 c-5 -25 -4 -28 5 -16 10 13 11 12 6 -2 -5 -16 4 -23 27 -19 4 0 7 -9
7 -21 l0 -21 -24 23 c-16 14 -31 20 -42 16 -14 -5 -15 -4 -5 8 6 8 10 25 7 38
-3 17 1 25 10 25 11 0 13 -8 9 -31z m1585 30 c0 -11 -19 -15 -25 -6 -3 5 1 10
9 10 9 0 16 -2 16 -4z m-2722 -17 c-2 -6 -8 -10 -13 -10 -5 0 -11 4 -13 10 -2
6 4 11 13 11 9 0 15 -5 13 -11z m-327 -40 c-10 -23 -10 -22 -8 8 0 18 5 29 9
25 5 -5 4 -19 -1 -33z m2849 27 c0 -8 6 -16 13 -19 6 -2 9 -8 4 -12 -4 -5 -14
0 -22 11 -17 23 -19 34 -5 34 6 0 10 -6 10 -14z m-2440 -3 c0 -5 -4 -14 -9
-21 -6 -10 -10 -9 -14 7 -3 14 0 21 9 21 8 0 14 -3 14 -7z m2541 -16 c-1 -12
-15 -9 -19 4 -3 6 1 10 8 8 6 -3 11 -8 11 -12z m-1984 -29 c-3 -7 -5 -2 -5 12
0 14 2 19 5 13 2 -7 2 -19 0 -25z m-948 -43 c-2 -25 -6 -45 -11 -45 -9 0 -10
35 -2 68 10 35 15 26 13 -23z m418 13 c-3 -8 -6 -5 -6 6 -1 11 2 17 5 13 3 -3
4 -12 1 -19z m1070 -20 c3 6 9 10 14 6 13 -8 11 -54 -2 -54 -6 0 -9 7 -5 15 3
8 0 15 -7 15 -15 0 -38 35 -29 44 3 4 10 -3 15 -16 6 -14 11 -18 14 -10z m-67
-33 c7 -9 8 -15 2 -15 -5 0 -12 7 -16 15 -3 8 -4 15 -2 15 2 0 9 -7 16 -15z
m60 -11 c0 -21 -17 -17 -23 5 -3 14 -1 18 9 14 8 -3 14 -11 14 -19z m60 -4 c0
-5 -5 -10 -11 -10 -5 0 -7 5 -4 10 3 6 8 10 11 10 2 0 4 -4 4 -10z m-1516 -36
c11 -28 6 -39 -9 -20 -8 11 -15 23 -15 28 0 14 18 9 24 -8z m436 -5 c0 -5 -4
-9 -10 -9 -5 0 -10 7 -10 16 0 8 5 12 10 9 6 -3 10 -10 10 -16z m2407 -1 c-3
-8 -6 -5 -6 6 -1 11 2 17 5 13 3 -3 4 -12 1 -19z m-1320 -3 c-4 -10 -26 -14
-40 -7 -13 6 1 18 22 18 12 0 20 -5 18 -11z m28 -36 c4 -11 4 -23 1 -26 -3 -4
-6 -1 -6 6 0 7 -4 10 -8 7 -4 -2 -9 4 -9 15 -2 25 14 24 22 -2z m-55 1 c0 -5
-4 -10 -10 -10 -5 0 -10 5 -10 10 0 6 5 10 10 10 6 0 10 -4 10 -10z m-479 -16
c12 -14 11 -16 -5 -13 -11 2 -21 10 -24 17 -5 17 13 15 29 -4z m39 -43 c0 -4
-7 -8 -15 -8 -8 0 -15 6 -15 13 0 8 6 11 15 8 8 -4 15 -9 15 -13z m-574 -58
c-10 -10 -19 5 -10 18 6 11 8 11 12 0 2 -7 1 -15 -2 -18z m609 -33 c-3 -5 -1
-10 4 -10 6 0 11 -7 11 -16 0 -8 -4 -13 -9 -10 -5 4 -12 0 -14 -6 -3 -7 -6 2
-6 20 -1 17 4 32 10 32 5 0 7 -4 4 -10z m-655 -40 c0 -5 -2 -10 -4 -10 -3 0
-8 5 -11 10 -3 6 -1 10 4 10 6 0 11 -4 11 -10z m2650 -10 c0 -5 -5 -10 -11
-10 -5 0 -7 5 -4 10 3 6 8 10 11 10 2 0 4 -4 4 -10z m-1386 -62 c4 -17 2 -28
-4 -28 -5 0 -10 3 -11 8 0 4 -2 20 -4 36 -5 35 10 22 19 -16z m1406 22 c0 -5
-2 -10 -4 -10 -3 0 -8 5 -11 10 -3 6 -1 10 4 10 6 0 11 -4 11 -10z m40 3 c0
-5 -5 -15 -10 -23 -7 -12 -9 -10 -7 8 1 19 17 33 17 15z m-2005 -13 c3 -5 1
-10 -4 -10 -6 0 -11 5 -11 10 0 6 2 10 4 10 3 0 8 -4 11 -10z m-1035 -28 c0
-13 -12 -22 -22 -16 -10 6 -1 24 13 24 5 0 9 -4 9 -8z m3030 -22 c0 -5 -5 -10
-11 -10 -5 0 -7 5 -4 10 3 6 8 10 11 10 2 0 4 -4 4 -10z m-2620 -32 c0 -19 -2
-20 -10 -8 -13 19 -13 30 0 30 6 0 10 -10 10 -22z m40 5 c-1 -27 -15 -53 -28
-53 -12 0 -13 3 -4 12 7 7 12 20 12 30 0 10 5 18 10 18 6 0 10 -3 10 -7z
m1204 -18 c3 -8 1 -15 -4 -15 -6 0 -10 7 -10 15 0 8 2 15 4 15 2 0 6 -7 10
-15z m-44 -45 c0 -5 -5 -10 -11 -10 -5 0 -7 5 -4 10 3 6 8 10 11 10 2 0 4 -4
4 -10z m84 -6 c11 -29 6 -44 -14 -44 -11 0 -20 7 -20 16 0 8 5 12 11 8 8 -4 9
0 4 15 -7 24 10 29 19 5z m-1211 0 c3 -4 1 -16 -4 -27 -9 -15 -13 -17 -19 -7
-14 23 5 51 23 34z m637 -39 c0 -8 -4 -15 -10 -15 -5 0 -10 7 -10 15 0 8 5 15
10 15 6 0 10 -7 10 -15z m-1020 -16 c0 -6 -4 -7 -10 -4 -5 3 -10 11 -10 16 0
6 5 7 10 4 6 -3 10 -11 10 -16z m1580 -9 c0 -5 -5 -10 -11 -10 -5 0 -7 5 -4
10 3 6 8 10 11 10 2 0 4 -4 4 -10z m41 -19 c1 -14 2 -14 6 2 7 26 23 21 23 -8
0 -14 5 -24 11 -22 6 1 14 -4 16 -10 6 -18 -12 -16 -27 2 -13 16 -35 21 -25 6
3 -5 1 -12 -5 -16 -9 -6 -14 7 -11 28 0 4 -6 7 -14 7 -17 0 -17 2 -9 24 7 19
34 10 35 -13z m-1645 -18 c-10 -10 -19 5 -10 18 6 11 8 11 12 0 2 -7 1 -15 -2
-18z m1624 -44 c0 -13 -44 -1 -46 13 -1 12 2 13 22 4 13 -6 24 -14 24 -17z
m-1606 -11 c6 -4 7 -10 4 -14 -11 -10 -40 24 -32 38 6 9 9 8 12 -2 3 -8 10
-18 16 -22z m411 2 c3 -5 1 -10 -4 -10 -6 0 -11 5 -11 10 0 6 2 10 4 10 3 0 8
-4 11 -10z m1255 0 c0 -5 -5 -10 -11 -10 -5 0 -7 5 -4 10 3 6 8 10 11 10 2 0
4 -4 4 -10z m30 -1 c0 8 2 12 5 9 3 -3 2 -13 -1 -22 -5 -14 -9 -15 -15 -4 -5
7 -9 18 -9 23 0 6 5 3 10 -5 8 -12 10 -12 10 -1z m-571 -35 c-15 -19 -28 -9
-22 16 4 16 8 18 19 9 11 -9 11 -15 3 -25z m582 -11 c-12 -20 -14 -14 -5 12 4
9 9 14 11 11 3 -2 0 -13 -6 -23z m-1701 -16 c0 -5 -4 -5 -10 -2 -5 3 -10 14
-10 23 0 15 2 15 10 2 5 -8 10 -19 10 -23z m1760 -25 c0 -12 -3 -12 -15 -2 -8
7 -15 13 -15 15 0 1 7 2 15 2 8 0 15 -7 15 -15z m-1740 -2 c0 -5 -5 -10 -11
-10 -5 0 -7 5 -4 10 3 6 8 10 11 10 2 0 4 -4 4 -10z m1200 -24 c0 -9 -7 -12
-20 -9 -11 3 -17 9 -14 14 8 14 34 10 34 -5z m64 -24 c3 -5 -1 -9 -9 -9 -8 0
-12 4 -9 9 3 4 7 8 9 8 2 0 6 -4 9 -8z m516 -12 c0 -5 -2 -10 -4 -10 -3 0 -8
5 -11 10 -3 6 -1 10 4 10 6 0 11 -4 11 -10z m-520 -14 c0 -3 -4 -8 -10 -11 -5
-3 -10 -1 -10 4 0 6 5 11 10 11 6 0 10 -2 10 -4z m550 -16 c6 -11 8 -25 5 -31
-9 -14 -34 21 -28 38 7 18 10 16 23 -7z m60 -60 c0 -5 -4 -10 -9 -10 -6 0 -13
5 -16 10 -3 6 1 10 9 10 9 0 16 -4 16 -10z m7 -50 c0 -16 -4 -27 -9 -24 -4 3
-8 16 -8 30 0 13 4 24 8 24 5 0 9 -13 9 -30z m40 -52 c-3 -7 -5 -2 -5 12 0 14
2 19 5 13 2 -7 2 -19 0 -25z m33 2 c0 -5 -5 -10 -11 -10 -5 0 -7 5 -4 10 3 6
8 10 11 10 2 0 4 -4 4 -10z m-665 -20 c3 -5 1 -10 -4 -10 -6 0 -11 5 -11 10 0
6 2 10 4 10 3 0 8 -4 11 -10z m32 -20 c-1 -22 -17 -28 -17 -7 0 12 9 27 16 27
2 0 2 -9 1 -20z m661 1 c12 -10 22 -23 22 -30 0 -6 5 -11 10 -11 6 0 10 -7 10
-16 0 -8 -4 -12 -10 -9 -5 3 -10 1 -10 -4 0 -14 13 -14 28 1 9 9 12 8 12 -5 0
-20 -19 -22 -54 -6 -21 10 -23 15 -15 31 13 24 5 48 -16 48 -8 0 -15 5 -15 10
0 15 15 12 38 -9z m1942 -6 c0 -2 -5 -16 -12 -30 -11 -25 -28 -34 -28 -15 0 6
5 10 10 10 6 0 10 9 10 20 0 11 5 20 10 20 6 0 10 -2 10 -5z m-2560 -40 c0 -2
-7 -5 -15 -9 -9 -3 -15 0 -15 9 0 9 6 12 15 9 8 -4 15 -7 15 -9z m47 -7 c-3
-8 -6 -5 -6 6 -1 11 2 17 5 13 3 -3 4 -12 1 -19z m2473 -28 c0 -5 -7 -10 -15
-10 -8 0 -15 5 -15 10 0 6 7 10 15 10 8 0 15 -4 15 -10z m-1817 -29 c-2 -6 2
-11 8 -11 13 0 39 -25 39 -38 0 -5 -6 -9 -14 -9 -8 0 -12 6 -9 13 3 8 -6 16
-21 20 -14 3 -23 10 -20 15 3 6 -5 7 -20 3 -16 -4 -26 -2 -26 4 0 11 36 21 55
17 6 -1 9 -8 8 -14z m-83 -1 c0 -5 -4 -10 -10 -10 -5 0 -10 5 -10 10 0 6 5 10
10 10 6 0 10 -4 10 -10z m-560 -21 c0 -5 -4 -9 -10 -9 -5 0 -10 7 -10 16 0 8
5 12 10 9 6 -3 10 -10 10 -16z m2430 11 c0 -5 -2 -10 -4 -10 -3 0 -8 5 -11 10
-3 6 -1 10 4 10 6 0 11 -4 11 -10z m-38 -52 c-6 -6 -9 0 -9 18 0 23 1 24 9 10
7 -12 7 -21 0 -28z m-1792 22 c0 -5 -7 -10 -15 -10 -8 0 -15 5 -15 10 0 6 7
10 15 10 8 0 15 -4 15 -10z m50 0 c0 -5 -4 -10 -9 -10 -6 0 -13 5 -16 10 -3 6
1 10 9 10 9 0 16 -4 16 -10z m68 -45 c0 -13 -4 -22 -9 -19 -5 3 -9 14 -9 25 0
10 4 19 9 19 5 0 9 -11 9 -25z m1641 1 c0 -12 -3 -15 -6 -8 -2 6 -8 10 -12 8
-4 -3 -8 1 -8 8 0 7 6 13 14 13 7 0 13 -10 12 -21z m-2312 -18 c-20 -13 -27
-9 -27 12 0 18 3 19 20 8 14 -9 16 -14 7 -20z m2277 -23 c5 -22 4 -26 -4 -15
-5 8 -10 24 -10 34 0 26 6 18 14 -19z m-1524 -52 c0 -8 5 -11 11 -8 13 8 39
-19 57 -58 6 -15 17 -25 22 -22 6 3 10 1 10 -4 0 -6 -9 -11 -20 -11 -11 0 -20
5 -20 11 0 7 -10 20 -21 30 -13 11 -19 25 -15 35 4 10 2 14 -6 11 -7 -2 -13
-16 -12 -30 0 -30 -20 -20 -22 11 -3 53 -5 62 -14 62 -5 0 -7 -8 -3 -17 4 -13
1 -12 -11 4 -9 12 -13 28 -10 37 5 12 10 10 30 -11 13 -14 24 -32 24 -40z
m-732 22 c-9 -9 -30 14 -23 25 6 9 10 8 17 -4 6 -10 8 -19 6 -21z m119 9 c-9
-9 -28 6 -21 18 4 6 10 6 17 -1 6 -6 8 -13 4 -17z m2108 6 c3 -5 1 -10 -4 -10
-6 0 -11 5 -11 10 0 6 2 10 4 10 3 0 8 -4 11 -10z m-2198 -30 c-1 -11 -5 -20
-9 -20 -3 0 -6 9 -5 20 1 11 5 20 9 20 3 0 6 -9 5 -20z m2226 -6 c-3 -9 -9
-12 -12 -7 -3 4 -10 11 -15 16 -5 4 0 7 12 7 15 0 20 -4 15 -16z m-59 -9 c3
-8 1 -15 -4 -15 -6 0 -10 7 -10 15 0 8 2 15 4 15 2 0 6 -7 10 -15z m-1519 -4
c3 -5 1 -12 -5 -16 -5 -3 -10 1 -10 9 0 18 6 21 15 7z m-607 -17 c5 3 13 -1
16 -9 4 -12 -1 -14 -26 -10 -40 7 -47 13 -28 25 9 6 17 5 21 -2 4 -6 11 -8 17
-4z m2149 -16 c-3 -8 -6 -5 -6 6 -1 11 2 17 5 13 3 -3 4 -12 1 -19z m-1997
-12 c0 -3 -4 -8 -10 -11 -5 -3 -10 -1 -10 4 0 6 5 11 10 11 6 0 10 -2 10 -4z
m43 -21 c-7 -21 -13 -19 -13 6 0 11 4 18 10 14 5 -3 7 -12 3 -20z m1934 3 c-3
-8 -6 -5 -6 6 -1 11 2 17 5 13 3 -3 4 -12 1 -19z m-2106 -1 c-1 -12 -15 -9
-19 4 -3 6 1 10 8 8 6 -3 11 -8 11 -12z m76 -29 c-3 -8 -6 -5 -6 6 -1 11 2 17
5 13 3 -3 4 -12 1 -19z m-41 -23 c1 -8 -2 -15 -7 -15 -5 0 -9 10 -9 22 0 23
12 17 16 -7z m2028 17 c3 -5 -1 -9 -9 -9 -8 0 -12 4 -9 9 3 4 7 8 9 8 2 0 6
-4 9 -8z m-1295 -15 c8 -11 5 -14 -18 -14 -20 0 -28 4 -24 14 3 7 11 13 18 13
7 0 18 -6 24 -13z m-649 -17 c0 -5 -2 -10 -4 -10 -3 0 -8 5 -11 10 -3 6 -1 10
4 10 6 0 11 -4 11 -10z m580 -6 c0 -14 -3 -14 -15 -4 -8 7 -15 14 -15 16 0 2
7 4 15 4 8 0 15 -7 15 -16z m1347 -16 c-3 -8 -6 -5 -6 6 -1 11 2 17 5 13 3 -3
4 -12 1 -19z m-1247 2 c0 -5 -4 -10 -10 -10 -5 0 -10 -7 -10 -16 0 -8 -4 -13
-9 -10 -13 9 -1 46 15 46 8 0 14 -4 14 -10z m-50 -14 c0 -3 -4 -8 -10 -11 -5
-3 -10 -1 -10 4 0 6 5 11 10 11 6 0 10 -2 10 -4z m1230 -6 c0 -5 -4 -10 -10
-10 -5 0 -10 5 -10 10 0 6 5 10 10 10 6 0 10 -4 10 -10z m-1866 -21 c-3 -5
-10 -7 -15 -3 -5 3 -7 10 -3 15 3 5 10 7 15 3 5 -3 7 -10 3 -15z m706 11 c0
-5 -4 -10 -10 -10 -5 0 -10 5 -10 10 0 6 5 10 10 10 6 0 10 -4 10 -10z m1204
-5 c-4 -8 -8 -15 -10 -15 -2 0 -4 7 -4 15 0 8 4 15 10 15 5 0 7 -7 4 -15z
m-1174 -16 c0 -5 -4 -9 -10 -9 -5 0 -10 7 -10 16 0 8 5 12 10 9 6 -3 10 -10
10 -16z m1050 1 c0 -5 -4 -10 -10 -10 -5 0 -10 5 -10 10 0 6 5 10 10 10 6 0
10 -4 10 -10z m37 -19 c1 -24 1 -25 -13 -6 -17 23 -18 32 -1 32 6 0 13 -12 14
-26z m63 2 c0 -3 -7 -3 -15 1 -8 3 -15 0 -15 -6 0 -6 -3 -9 -6 -5 -11 10 6 26
21 20 8 -3 15 -7 15 -10z m-1878 -37 c-2 -5 -9 -1 -14 8 -5 9 -6 21 -2 28 9
14 25 -22 16 -36z m763 20 c25 -23 25 -25 8 -36 -15 -10 -14 -10 10 -5 21 4
28 2 24 -7 -2 -7 -8 -12 -13 -11 -5 0 -33 3 -62 6 -30 3 -57 9 -60 13 -4 4 5
4 20 0 15 -3 30 -1 33 4 4 6 10 8 14 6 4 -3 13 -1 21 5 11 6 8 9 -12 9 -24 0
-28 8 -19 38 2 6 12 0 36 -22z m985 -6 c-8 -5 -17 -7 -19 -4 -3 3 1 9 9 14 8
5 17 7 19 4 3 -3 -1 -9 -9 -14z m30 0 c-6 -4 -11 -10 -11 -14 1 -3 -1 -6 -4
-6 -6 0 -5 9 2 27 3 7 10 10 15 7 6 -4 6 -9 -2 -14z m-1715 -9 c3 -5 2 -12 -3
-15 -5 -3 -9 1 -9 9 0 17 3 19 12 6z m1785 -13 c0 -4 -4 -8 -9 -8 -5 0 -16 -3
-25 -6 -11 -4 -16 -1 -16 10 0 11 8 15 25 14 14 -1 25 -6 25 -10z m-26 -43
c-7 -16 -24 -21 -24 -6 0 8 7 13 27 20 1 1 0 -6 -3 -14z m-1194 -7 c0 -4 -4
-8 -9 -8 -6 0 -12 4 -15 8 -3 5 1 9 9 9 8 0 15 -4 15 -9z m155 3 c-3 -5 -1
-12 5 -16 5 -3 10 1 10 9 0 21 36 20 44 -1 4 -9 2 -21 -4 -27 -8 -8 -9 -5 -4
9 7 17 5 18 -7 8 -22 -18 -59 -12 -59 9 0 10 5 18 11 18 5 0 8 -4 4 -9z m995
-1 c0 -5 -4 -10 -9 -10 -6 0 -13 5 -16 10 -3 6 1 10 9 10 9 0 16 -4 16 -10z
m-85 -10 c3 -5 2 -10 -4 -10 -5 0 -13 5 -16 10 -3 6 -2 10 4 10 5 0 13 -4 16
-10z m-1599 -29 c-12 -19 -24 -12 -19 10 4 13 9 17 15 11 6 -6 7 -15 4 -21z
m1698 4 c-4 -8 -8 -15 -10 -15 -2 0 -4 7 -4 15 0 8 4 15 10 15 5 0 7 -7 4 -15z
m-177 -31 c-3 -3 -12 -4 -19 -1 -8 3 -5 6 6 6 11 1 17 -2 13 -5z m-1477 -14
c0 -5 -5 -10 -11 -10 -5 0 -7 -4 -4 -10 3 -5 1 -10 -4 -10 -6 0 -11 2 -11 4 0
2 -3 11 -6 20 -4 12 0 16 15 16 12 0 21 -4 21 -10z m100 0 c0 -5 -4 -10 -10
-10 -5 0 -10 5 -10 10 0 6 5 10 10 10 6 0 10 -4 10 -10z m-65 -20 c-3 -5 -14
-10 -23 -9 -14 0 -13 2 3 9 27 11 27 11 20 0z m765 -5 c7 -9 8 -15 2 -15 -5 0
-12 7 -16 15 -3 8 -4 15 -2 15 2 0 9 -7 16 -15z m-780 -25 c0 -5 -2 -10 -4
-10 -3 0 -8 5 -11 10 -3 6 -1 10 4 10 6 0 11 -4 11 -10z m70 0 c0 -5 -5 -10
-11 -10 -5 0 -7 5 -4 10 3 6 8 10 11 10 2 0 4 -4 4 -10z m740 0 c0 -5 -5 -10
-11 -10 -5 0 -7 5 -4 10 3 6 8 10 11 10 2 0 4 -4 4 -10z m37 -36 c9 -9 9 -16
-3 -30 -14 -18 -14 -18 -12 1 2 15 -3 20 -21 20 -13 0 -26 6 -28 12 -6 16 47
13 64 -3z m-816 -11 c13 -15 12 -15 -8 -4 -24 12 -29 21 -14 21 5 0 15 -7 22
-17z m729 5 c0 -4 -4 -8 -9 -8 -6 0 -12 4 -15 8 -3 5 1 9 9 9 8 0 15 -4 15 -9z
m640 -2 c0 -8 -4 -18 -10 -21 -5 -3 -10 3 -10 14 0 12 5 21 10 21 6 0 10 -6
10 -14z m-34 -35 c-8 -12 -36 -4 -36 11 0 5 5 6 10 3 6 -3 10 -1 10 6 0 10 3
10 11 2 6 -6 8 -16 5 -22z m-557 -3 c-5 -10 -12 -18 -15 -18 -3 0 -2 5 1 10 3
6 1 10 -5 10 -6 0 -9 4 -6 8 3 5 12 9 20 9 11 0 13 -5 5 -19z m71 12 c0 -5 -4
-10 -10 -10 -5 0 -10 5 -10 10 0 6 5 10 10 10 6 0 10 -4 10 -10z m440 0 c0 -5
-2 -10 -4 -10 -3 0 -8 5 -11 10 -3 6 -1 10 4 10 6 0 11 -4 11 -10z m-20 -19
c0 -5 -10 -11 -22 -14 -22 -6 -22 -6 -4 8 23 17 26 18 26 6z m-386 -17 c3 -8
10 -12 16 -9 5 3 10 2 10 -3 0 -5 -13 -9 -30 -9 -25 0 -28 3 -17 15 10 13 8
14 -12 7 -16 -5 -21 -4 -17 4 10 16 43 13 50 -5z m423 -7 c-1 -5 -11 -11 -20
-13 -14 -2 -15 1 -6 17 10 20 33 16 26 -4z m-1225 -9 c-7 -7 -12 -8 -12 -2 0
14 12 26 19 19 2 -3 -1 -11 -7 -17z m-32 -3 c0 -8 -2 -15 -4 -15 -2 0 -6 7
-10 15 -3 8 -1 15 4 15 6 0 10 -7 10 -15z m1210 -5 c0 -5 -4 -10 -10 -10 -5 0
-10 5 -10 10 0 6 5 10 10 10 6 0 10 -4 10 -10z m-322 -37 c-16 -20 -25 -15
-22 10 1 12 3 23 3 25 1 1 7 -3 15 -10 10 -9 11 -17 4 -25z m-839 0 c-10 -11
-14 -11 -20 -1 -14 21 -10 26 11 21 16 -4 18 -8 9 -20z m1331 17 c0 -5 -4 -10
-10 -10 -5 0 -10 5 -10 10 0 6 5 10 10 10 6 0 10 -4 10 -10z m-30 -35 c0 -3
-4 -4 -9 0 -5 3 -11 -3 -14 -12 -2 -10 -4 -4 -4 14 0 26 2 29 13 18 8 -7 14
-16 14 -20z m-1275 6 c-3 -6 4 -15 15 -21 11 -6 20 -17 20 -25 0 -8 6 -18 14
-22 11 -6 9 -12 -6 -28 -20 -20 -20 -20 -17 10 3 20 0 29 -9 28 -6 -2 -12 5
-12 14 0 9 -7 25 -17 35 -15 17 -15 18 1 18 9 0 15 -4 11 -9z m845 -12 c0 -5
-4 -7 -10 -4 -5 3 -10 -1 -10 -9 0 -8 -8 -14 -20 -13 -18 1 -18 2 -2 18 19 20
42 24 42 8z m210 -19 c0 -5 -5 -10 -11 -10 -5 0 -7 5 -4 10 3 6 8 10 11 10 2
0 4 -4 4 -10z m-160 -30 c7 -14 7 -20 0 -20 -5 0 -10 7 -10 16 0 8 -4 13 -9 9
-5 -3 -12 -1 -16 5 -3 5 1 10 9 10 8 0 20 -9 26 -20z m-650 -25 c0 -8 -4 -15
-10 -15 -5 0 -7 7 -4 15 4 8 8 15 10 15 2 0 4 -7 4 -15z m620 11 c0 -3 -4 -8
-10 -11 -5 -3 -10 -1 -10 4 0 6 5 11 10 11 6 0 10 -2 10 -4z m-780 -51 c0 -8
-4 -15 -8 -15 -5 0 -9 7 -9 15 0 8 4 15 9 15 4 0 8 -7 8 -15z m120 -4 c0 -16
-13 -19 -26 -6 -19 19 -17 24 6 18 11 -3 20 -9 20 -12z m-67 -30 c5 -15 18
-33 28 -39 15 -10 17 -8 13 14 -3 16 -1 23 6 19 18 -11 11 -42 -15 -59 -23
-15 -25 -15 -25 -1 0 9 -4 13 -10 10 -5 -3 -10 3 -10 14 0 11 -5 23 -12 27 -7
5 -8 3 -3 -6 5 -8 4 -11 -2 -7 -5 3 -9 16 -7 29 3 30 2 28 15 28 6 0 16 -13
22 -29z m996 -35 c-9 -8 -10 -7 -5 7 3 10 7 24 7 30 1 7 3 4 6 -7 3 -10 -1
-23 -8 -30z m-29 -36 c-8 -5 -16 -8 -17 -6 -2 2 -1 11 3 20 5 13 10 14 18 6 8
-8 7 -13 -4 -20z m-30 -40 c0 -5 -4 -10 -10 -10 -5 0 -10 5 -10 10 0 6 5 10
10 10 6 0 10 -4 10 -10z m-712 -165 c0 -14 8 -32 18 -40 16 -12 17 -16 5 -24
-21 -14 -43 -1 -38 21 4 14 1 18 -9 14 -17 -7 -17 -4 -2 29 14 32 26 32 26 0z
m47 5 c3 -5 -1 -10 -9 -10 -9 0 -16 5 -16 10 0 6 4 10 9 10 6 0 13 -4 16 -10z
m523 -25 c-3 -3 -9 2 -12 12 -6 14 -5 15 5 6 7 -7 10 -15 7 -18z m-19 -152 c1
-71 -13 -75 -17 -5 -2 32 -4 64 -4 72 -1 8 0 31 2 50 2 32 3 31 10 -15 5 -27
9 -73 9 -102z m-489 84 c0 -8 -6 -14 -14 -14 -8 0 -12 6 -9 14 3 7 9 13 14 13
5 0 9 -6 9 -13z m20 -49 c0 -12 -3 -18 -7 -14 -11 10 -12 36 -2 36 5 0 9 -10
9 -22z m64 -54 c10 -26 7 -56 -5 -49 -6 4 -8 14 -5 22 8 20 -4 39 -14 23 -5
-8 -9 -7 -13 4 -4 11 -1 16 12 16 10 0 22 -7 25 -16z m56 -4 c0 -5 -4 -10 -10
-10 -5 0 -10 5 -10 10 0 6 5 10 10 10 6 0 10 -4 10 -10z m-16 -35 c-4 -8 -10
-15 -15 -15 -5 0 -9 7 -9 15 0 8 7 15 15 15 9 0 12 -6 9 -15z m366 -166 c0
-54 -4 -99 -8 -99 -5 0 -10 48 -11 106 -2 73 1 104 8 99 7 -4 11 -46 11 -106z
m-301 84 c11 -9 18 -20 15 -25 -3 -5 -14 1 -25 13 -29 34 -23 41 10 12z m19
-68 c-3 -3 -9 2 -12 12 -6 14 -5 15 5 6 7 -7 10 -15 7 -18z m167 -185 c3 -5 1
-10 -4 -10 -6 0 -11 5 -11 10 0 6 2 10 4 10 3 0 8 -4 11 -10z m115 -96 c0 -46
-3 -54 -13 -45 -18 15 -11 101 9 101 2 0 4 -25 4 -56z"/>
<path d="M5946 10785 c-8 -8 -18 -24 -21 -35 -3 -11 -11 -20 -16 -20 -5 0 -9
-5 -9 -11 0 -6 6 -9 14 -6 8 3 17 1 19 -6 2 -7 8 -8 13 -3 5 5 4 11 -3 13 -18
6 -16 16 7 43 30 34 27 55 -4 25z"/>
<path d="M9786 10772 c-3 -6 -1 -14 5 -17 15 -10 25 3 12 16 -7 7 -13 7 -17 1z"/>
<path d="M9650 10659 c0 -6 -9 -9 -20 -6 -11 3 -18 2 -16 -1 5 -11 -50 -58
-62 -54 -7 2 -19 -4 -28 -13 -9 -9 -23 -14 -30 -11 -8 3 -14 2 -14 -3 0 -16
41 -20 47 -5 3 8 14 14 24 14 11 0 22 7 25 15 4 8 10 12 15 9 5 -3 12 2 15 10
3 9 17 16 30 16 14 0 24 6 24 14 0 8 6 17 13 19 7 3 5 6 -5 6 -10 1 -18 -4
-18 -10z"/>
<path d="M10125 10170 c3 -5 2 -10 -4 -10 -6 0 -55 -45 -111 -100 -55 -55
-102 -100 -105 -100 -6 0 -65 -58 -65 -64 0 -6 -93 -96 -99 -96 -4 0 -13 -10
-21 -21 -8 -12 -48 -55 -87 -96 -40 -40 -73 -75 -73 -77 0 -5 -82 -86 -87 -86
-9 0 -33 -29 -33 -39 0 -6 -7 -11 -17 -11 -9 0 -14 -3 -10 -6 5 -5 -10 -27
-40 -59 -15 -16 -18 -79 -3 -70 6 4 10 -13 10 -44 0 -30 -5 -51 -12 -54 -9 -3
-4 -11 12 -23 17 -13 66 -24 160 -37 74 -9 145 -17 158 -17 12 0 22 -5 22 -10
0 -6 18 -10 40 -10 22 0 40 -4 40 -8 0 -7 52 -22 135 -38 17 -3 34 -10 39 -15
6 -5 33 -9 60 -10 33 0 44 -3 32 -8 -12 -5 8 -11 63 -21 44 -7 81 -17 81 -21
0 -9 91 -29 103 -22 16 9 5 470 -13 593 -29 188 -67 357 -82 366 -4 3 -8 16
-8 30 0 13 -4 32 -10 42 -24 44 -55 131 -52 145 1 4 -5 7 -14 7 -8 0 -12 -4
-9 -10z"/>
<path d="M9270 10125 c-7 -8 -18 -15 -25 -15 -7 0 -15 -7 -19 -15 -3 -8 -13
-15 -23 -15 -15 0 -15 -2 -3 -9 8 -6 18 -7 23 -4 5 3 13 -1 18 -8 4 -7 12 -10
16 -5 4 5 2 11 -4 13 -15 5 -17 33 -3 33 6 0 10 -4 10 -10 0 -5 5 -10 11 -10
6 0 8 8 4 19 -4 12 -1 18 7 17 15 -1 24 17 10 22 -5 1 -15 -4 -22 -13z"/>
<path d="M9168 10051 c-13 -4 -15 -10 -8 -21 7 -11 12 -12 18 -4 4 7 16 14 27
16 20 4 20 4 0 9 -11 3 -28 3 -37 0z"/>
<path d="M9127 10000 c-3 -11 -1 -20 4 -20 5 0 9 2 9 4 0 2 3 11 6 20 3 9 2
16 -4 16 -5 0 -12 -9 -15 -20z"/>
<path d="M9090 9975 c0 -8 2 -15 4 -15 2 0 6 7 10 15 3 8 1 15 -4 15 -6 0 -10
-7 -10 -15z"/>
<path d="M5835 9130 c-14 -6 1 -9 48 -9 38 -1 67 3 67 9 0 12 -87 12 -115 0z"/>
<path d="M11500 8994 c-19 -12 -32 -39 -54 -107 -16 -51 -32 -101 -37 -112 -4
-11 -10 -37 -14 -58 -3 -21 -10 -35 -16 -32 -5 4 -9 -7 -9 -23 0 -16 -3 -32
-7 -36 -8 -7 -12 -24 -20 -73 -3 -18 -9 -33 -14 -33 -5 0 -9 -13 -9 -30 0 -16
-4 -30 -10 -30 -5 0 -10 -11 -10 -25 0 -14 -4 -25 -10 -25 -5 0 -10 -13 -10
-30 0 -16 -4 -30 -10 -30 -5 0 -10 -17 -10 -38 0 -21 -3 -42 -7 -45 -9 -10
-53 -148 -53 -168 0 -9 -7 -30 -15 -45 -8 -16 -15 -37 -15 -46 0 -9 -5 -29
-12 -45 -14 -35 -13 -29 -22 -80 -4 -24 -12 -43 -17 -43 -4 0 -11 -22 -15 -50
-4 -27 -10 -50 -15 -50 -5 0 -9 -13 -9 -29 0 -17 -4 -32 -9 -36 -5 -3 -13 -30
-16 -60 -4 -30 -11 -55 -15 -55 -11 0 -18 -57 -8 -74 4 -8 22 -17 38 -21 17
-4 30 -10 30 -15 0 -4 19 -11 42 -15 23 -4 48 -14 56 -21 7 -8 24 -14 38 -14
13 0 24 -4 24 -10 0 -5 15 -10 34 -10 19 0 38 -4 41 -10 10 -16 63 -12 85 7
11 10 20 30 20 45 0 16 5 28 10 28 6 0 10 18 10 40 0 22 4 40 8 40 5 0 15 23
22 51 8 27 18 52 22 55 4 3 8 20 8 39 0 19 5 37 10 40 6 3 10 22 10 41 0 19 3
34 8 34 4 0 16 30 26 68 10 37 24 81 32 99 8 17 17 45 20 62 4 17 10 31 15 31
5 0 9 14 9 30 0 17 4 30 8 30 4 0 8 9 9 19 1 11 9 40 17 65 9 26 16 56 16 66
0 11 5 20 10 20 6 0 10 14 10 30 0 17 5 30 10 30 6 0 10 9 10 20 0 11 4 28 9
38 15 27 71 198 71 216 0 9 4 24 9 34 11 19 25 73 23 85 -1 4 2 7 8 7 6 0 10
11 10 25 0 14 5 34 12 44 6 11 8 26 3 37 -4 11 -7 26 -6 34 1 16 -41 40 -71
40 -10 0 -27 5 -38 10 -11 6 -29 15 -40 20 -11 6 -27 10 -35 10 -8 0 -15 5
-15 11 0 6 -8 8 -19 4 -11 -3 -22 -1 -26 5 -3 5 -17 10 -31 10 -13 0 -24 5
-24 10 0 15 -52 11 -80 -6z"/>
<path d="M4120 8983 c-14 -2 -29 -10 -35 -16 -14 -17 -83 -40 -95 -32 -5 3
-10 1 -10 -4 0 -6 -9 -11 -20 -11 -11 0 -30 -5 -43 -12 -12 -6 -29 -14 -37
-18 -9 -4 -16 -24 -18 -54 -2 -32 0 -46 7 -41 7 4 11 -10 11 -39 0 -25 4 -46
8 -46 5 0 15 -25 22 -55 7 -31 17 -58 22 -61 4 -3 8 -16 8 -29 0 -13 5 -27 10
-30 6 -3 10 -19 10 -36 0 -16 4 -29 9 -29 6 0 13 -20 17 -45 3 -25 10 -45 15
-45 5 0 9 -13 9 -30 0 -16 5 -30 10 -30 6 0 10 -11 10 -24 0 -40 17 -39 23 1
4 23 2 42 -5 48 -8 7 -9 6 -3 -4 5 -9 3 -12 -6 -9 -8 3 -13 15 -11 31 2 15 -3
29 -13 34 -14 8 -14 11 -2 22 11 9 17 9 22 1 4 -6 4 -14 1 -17 -3 -3 3 -20 13
-37 20 -34 37 -91 24 -83 -5 3 -14 -7 -21 -23 -13 -28 -3 -70 16 -70 4 0 8
-17 9 -37 0 -21 8 -51 17 -68 9 -16 16 -39 16 -50 0 -11 7 -33 15 -49 8 -15
15 -36 15 -46 0 -10 7 -31 15 -46 8 -16 15 -39 15 -51 0 -13 5 -23 10 -23 6 0
10 -14 10 -31 0 -18 4 -28 10 -24 6 4 8 10 6 14 -3 4 0 13 5 21 6 10 7 -3 3
-37 -4 -34 -3 -53 4 -53 5 0 13 -21 17 -46 10 -69 14 -77 33 -62 10 8 13 8 9
2 -9 -16 3 -104 14 -104 5 0 9 9 9 19 0 11 5 23 12 27 8 5 9 0 4 -17 -15 -54
-19 -109 -7 -109 6 0 11 -4 11 -10 0 -5 11 -20 25 -34 17 -17 25 -20 25 -11 0
8 5 15 11 15 5 0 8 -4 4 -9 -3 -5 -1 -12 5 -16 5 -3 10 1 10 10 0 9 6 15 13
14 26 -3 47 1 47 11 0 6 -9 10 -20 10 -11 0 -20 7 -20 15 0 19 26 20 33 1 7
-19 105 -12 121 8 6 8 29 16 51 20 22 3 41 10 43 16 2 5 8 8 12 5 16 -10 41
41 36 71 -2 16 -5 37 -5 47 -1 10 -5 16 -10 12 -5 -3 -8 -21 -6 -40 2 -29 0
-35 -16 -35 -10 0 -19 5 -19 10 0 6 5 10 10 10 6 0 10 10 10 23 0 12 4 28 9
35 4 8 2 36 -7 67 -14 49 -17 53 -29 37 -13 -16 -13 -15 -8 6 10 34 -4 82 -23
83 -11 0 -12 2 -4 6 13 5 17 33 4 33 -5 0 -14 -10 -21 -22 -7 -14 -9 -16 -6
-5 3 10 5 25 5 33 0 9 5 12 10 9 6 -3 10 -1 10 4 0 6 -4 11 -9 11 -8 0 -16 30
-24 83 -1 10 -8 21 -15 26 -8 4 -12 14 -11 22 1 8 -3 27 -9 42 -7 15 -11 33
-9 39 1 6 -4 13 -10 15 -7 3 -13 0 -13 -5 0 -5 -11 -7 -25 -4 -27 5 -32 16
-14 28 6 3 14 2 18 -4 4 -6 12 -7 19 -3 14 9 7 77 -8 86 -5 3 -14 30 -21 60
-7 30 -15 55 -19 55 -4 0 -11 20 -14 45 -4 24 -12 47 -17 51 -6 3 -8 12 -5 20
3 8 1 14 -4 14 -6 0 -10 9 -10 20 0 11 -4 20 -10 20 -5 0 -10 -4 -10 -9 0 -6
-9 -9 -20 -8 -11 1 -20 5 -20 10 0 5 7 7 15 3 23 -9 28 32 10 94 -9 30 -20 69
-24 85 -5 17 -10 26 -11 20 -2 -9 -12 29 -27 97 -3 15 -9 25 -14 22 -5 -3 -9
10 -9 29 0 40 -23 90 -36 79 -4 -4 -2 1 5 11 12 15 11 20 -1 35 -8 9 -18 25
-21 35 -5 13 -17 17 -54 16 -26 -1 -59 -4 -73 -6z m110 -17 c0 -2 -7 -9 -15
-16 -13 -11 -14 -10 -9 4 5 14 24 23 24 12z m-105 -16 c3 -5 -1 -10 -9 -10 -9
0 -16 5 -16 10 0 6 4 10 9 10 6 0 13 -4 16 -10z m60 -8 c-3 -3 -11 0 -18 7 -9
10 -8 11 6 5 10 -3 15 -9 12 -12z m-100 -22 c-4 -6 -11 -8 -16 -4 -5 3 -16 0
-24 -6 -9 -8 -15 -8 -15 -2 0 12 17 20 43 21 10 1 15 -4 12 -9z m-85 -20 c0
-5 -5 -10 -11 -10 -5 0 -7 5 -4 10 3 6 8 10 11 10 2 0 4 -4 4 -10z m-90 -30
c0 -5 -8 -10 -17 -10 -15 0 -16 2 -3 10 19 12 20 12 20 0z m214 -16 c8 -3 12
-12 9 -20 -3 -9 0 -12 8 -9 8 3 29 -4 47 -15 29 -18 39 -43 33 -83 -1 -4 -2
-39 -2 -77 -1 -38 -5 -67 -10 -64 -5 3 -9 0 -9 -6 0 -7 -7 -9 -16 -6 -10 4
-26 -1 -38 -11 -19 -17 -20 -17 -7 0 12 15 11 17 -3 17 -9 0 -16 6 -17 13 0
10 -2 10 -6 0 -8 -21 -32 -15 -26 5 2 11 -6 31 -20 48 -20 23 -26 44 -30 92
-2 35 0 65 5 68 4 3 5 10 2 16 -4 6 1 8 15 3 15 -4 21 -2 21 8 0 9 6 18 13 20
6 3 13 6 14 6 1 1 8 -2 17 -5z m-213 -117 c-13 -13 -15 15 -3 53 7 24 7 23 10
-9 2 -18 -1 -38 -7 -44z m29 -28 c0 -6 -4 -7 -10 -4 -5 3 -10 11 -10 16 0 6 5
7 10 4 6 -3 10 -11 10 -16z m377 -11 c-3 -8 -6 -5 -6 6 -1 11 2 17 5 13 3 -3
4 -12 1 -19z m14 -58 c15 0 10 -30 -6 -37 -22 -8 -30 4 -16 21 8 10 9 16 1 21
-6 3 -7 12 -3 18 5 8 9 7 11 -5 2 -10 8 -18 13 -18z m-371 -6 c0 -8 -4 -12
-10 -9 -5 3 -10 10 -10 16 0 5 5 9 10 9 6 0 10 -7 10 -16z m302 -26 c-7 -7
-12 -8 -12 -2 0 14 12 26 19 19 2 -3 -1 -11 -7 -17z m95 -10 c-3 -8 -6 -5 -6
6 -1 11 2 17 5 13 3 -3 4 -12 1 -19z m-374 -25 c5 -26 4 -26 -9 -8 -15 21 -19
49 -5 41 5 -3 11 -18 14 -33z m373 5 c1 -2 -11 -11 -28 -21 -20 -11 -27 -13
-20 -4 9 10 8 17 -1 26 -9 10 -6 11 17 7 16 -3 30 -7 32 -8z m16 -50 c-3 -18
-7 -27 -10 -19 -4 11 -6 11 -13 0 -6 -10 -9 -5 -9 16 0 20 3 26 9 17 7 -11 9
-11 14 2 10 26 14 18 9 -16z m-356 -75 c-9 -9 -13 -2 -20 37 l-7 35 17 -33 c9
-18 14 -35 10 -39z m387 -26 c3 -8 1 -20 -4 -28 -6 -10 -9 -7 -9 14 0 29 5 35
13 14z m-313 -173 c0 -8 -4 -12 -10 -9 -5 3 -10 10 -10 16 0 5 5 9 10 9 6 0
10 -7 10 -16z m387 -34 c1 -11 -2 -20 -8 -20 -5 0 -9 9 -9 20 0 11 4 20 8 20
4 0 8 -9 9 -20z m18 -62 c6 -4 2 -8 -7 -8 -10 0 -18 7 -18 17 0 9 3 12 8 7 4
-5 12 -12 17 -16z m-382 6 c9 -9 -4 -35 -14 -28 -5 3 -9 12 -9 20 0 14 12 19
23 8z m407 -120 c0 -8 -4 -13 -9 -10 -5 3 -11 -4 -14 -15 -5 -18 -8 -19 -20
-8 -8 8 -13 18 -10 23 3 4 9 3 13 -4 6 -9 10 -6 15 9 7 24 25 28 25 5z m20
-39 c0 -19 -5 -35 -11 -35 -6 0 -8 9 -4 21 5 15 4 19 -5 14 -8 -5 -7 0 2 14
17 28 18 27 18 -14z m-33 -37 c-3 -8 -6 -5 -6 6 -1 11 2 17 5 13 3 -3 4 -12 1
-19z m63 -26 c-1 -21 -19 -34 -35 -25 -16 9 -16 11 0 26 15 16 35 15 35 -1z
m-385 -11 c3 -5 1 -12 -5 -16 -5 -3 -10 1 -10 9 0 18 6 21 15 7z m400 -59 c-8
-8 -25 10 -19 20 4 6 9 5 15 -3 4 -7 6 -15 4 -17z m-390 -1 c3 -5 1 -12 -5
-16 -5 -3 -10 1 -10 9 0 18 6 21 15 7z m76 -91 c-16 -10 -24 -40 -10 -40 10 0
9 -69 -2 -75 -6 -4 -18 46 -20 85 -2 40 18 67 36 49 6 -6 5 -13 -4 -19z m354
-20 c3 -5 1 -10 -4 -10 -6 0 -11 5 -11 10 0 6 2 10 4 10 3 0 8 -4 11 -10z
m-338 -132 c-3 -8 -6 -5 -6 6 -1 11 2 17 5 13 3 -3 4 -12 1 -19z m26 -53 c-3
-9 -8 -14 -10 -11 -3 3 -2 9 2 15 9 16 15 13 8 -4z m25 -96 c-3 -8 -7 -3 -11
10 -4 17 -3 21 5 13 5 -5 8 -16 6 -23z m322 0 c0 -5 -2 -9 -4 -9 -2 0 -13 -3
-23 -6 -15 -5 -15 -4 -3 5 11 8 12 11 2 11 -7 0 -11 4 -7 10 7 11 35 2 35 -11z
m-55 -11 c6 -4 -3 -8 -18 -8 -23 0 -26 2 -15 14 7 8 15 11 18 8 3 -4 10 -10
15 -14z m-54 -21 c-1 -12 -15 -9 -19 4 -3 6 1 10 8 8 6 -3 11 -8 11 -12z
m-196 -8 c4 -6 5 -12 2 -15 -7 -7 -37 7 -37 17 0 13 27 11 35 -2z m140 -10
c-7 -10 -35 -1 -35 11 0 5 9 6 20 3 11 -3 17 -9 15 -14z m-100 -29 c-3 -5 -13
-10 -21 -10 -8 0 -12 5 -9 10 3 6 13 10 21 10 8 0 12 -4 9 -10z"/>
<path d="M11833 8266 c-6 -7 -17 -33 -23 -57 -7 -24 -18 -57 -25 -74 -7 -16
-21 -57 -30 -90 -10 -33 -21 -69 -26 -80 -4 -11 -9 -35 -12 -53 -3 -27 0 -36
17 -42 12 -5 17 -9 11 -10 -15 -1 64 -27 108 -34 21 -4 35 -11 32 -17 -4 -5 5
-9 18 -9 18 0 27 7 31 25 4 14 11 25 16 25 6 0 10 11 10 24 0 14 5 28 10 31 6
3 10 19 10 34 0 15 3 31 7 35 4 4 9 19 11 34 2 15 9 36 16 47 12 19 24 67 32
128 3 22 -1 30 -16 34 -11 3 -20 9 -20 14 0 5 -8 9 -17 9 -10 0 -42 9 -71 20
-61 23 -73 24 -89 6z"/>
<path d="M3837 8242 c-39 -2 -60 -8 -64 -18 -3 -8 -19 -14 -39 -14 -34 0 -34
0 -34 -45 0 -32 5 -47 15 -51 9 -4 14 -11 13 -18 -3 -20 13 -76 23 -76 5 0 9
-19 9 -42 0 -32 3 -39 10 -28 8 12 10 9 10 -12 0 -16 4 -28 9 -28 5 0 7 -9 4
-20 -3 -12 0 -20 6 -20 7 0 11 -6 10 -12 0 -7 2 -23 6 -35 9 -27 59 -33 68 -8
4 8 26 17 57 21 32 4 50 11 50 20 0 13 12 18 32 15 4 0 6 8 5 19 -1 11 -5 20
-9 20 -4 0 -10 23 -14 50 -4 28 -10 50 -14 50 -5 0 -13 22 -20 50 -6 27 -18
54 -25 60 -7 6 -11 19 -8 29 3 11 -2 21 -11 24 -10 4 -16 18 -16 36 0 16 -3
31 -7 33 -5 2 -34 2 -66 0z m23 -22 c0 -13 -28 -25 -38 -16 -3 4 0 11 8 16 20
13 30 12 30 0z m30 0 c0 -5 -4 -10 -10 -10 -5 0 -10 5 -10 10 0 6 5 10 10 10
6 0 10 -4 10 -10z m-87 -6 c8 -8 -3 -34 -14 -34 -5 0 -9 9 -9 20 0 19 11 26
23 14z m83 -29 c-8 -8 -17 -15 -20 -15 -3 0 -6 7 -6 15 0 9 9 15 21 15 18 0
19 -2 5 -15z m-146 -6 c0 -5 5 -7 10 -4 14 9 12 -7 -4 -28 -8 -10 -17 -14 -20
-8 -3 5 0 12 6 15 10 5 10 7 1 12 -15 7 -17 24 -3 24 6 0 10 -5 10 -11z m168
-24 c0 -14 -4 -28 -9 -31 -5 -3 -9 9 -9 25 0 17 4 31 9 31 5 0 9 -11 9 -25z
m-156 -77 c-7 -7 -12 -8 -12 -2 0 14 12 26 19 19 2 -3 -1 -11 -7 -17z m208
-108 c0 -5 -5 -10 -11 -10 -5 0 -7 5 -4 10 3 6 8 10 11 10 2 0 4 -4 4 -10z
m37 -72 c-3 -8 -6 -5 -6 6 -1 11 2 17 5 13 3 -3 4 -12 1 -19z"/>
<path d="M6163 7183 c-15 -6 -17 -33 -3 -33 6 0 10 7 10 16 0 9 5 12 12 8 7
-4 8 -3 4 4 -4 7 -8 12 -9 11 -1 0 -8 -3 -14 -6z"/>
<path d="M1330 4209 c0 -21 5 -39 10 -39 6 0 10 -21 10 -47 0 -27 7 -61 15
-77 8 -15 15 -44 15 -63 0 -19 7 -41 15 -49 13 -13 15 -107 15 -718 0 -585 -2
-705 -14 -715 -7 -6 -16 -35 -18 -63 -3 -29 -11 -54 -17 -56 -6 -2 -11 -27
-11 -58 0 -30 -4 -54 -10 -54 -5 0 -10 -15 -10 -34 l0 -33 68 -6 c77 -7 1411
-6 1430 1 7 2 12 21 12 42 0 22 5 42 10 45 6 3 10 19 10 35 0 34 18 117 31
142 5 10 9 30 9 46 0 15 4 32 9 38 5 5 11 28 15 52 l6 42 -469 0 c-258 0 -477
3 -486 6 -14 6 -16 28 -14 185 l1 179 257 2 c412 2 425 3 439 11 9 6 12 61 12
216 0 173 -3 211 -15 221 -12 10 -18 10 -29 1 -8 -7 -16 -8 -19 -4 -3 5 -150
8 -326 7 l-321 -1 0 158 0 159 420 0 c404 0 420 1 430 19 5 11 10 34 10 51 0
17 4 29 9 26 5 -3 12 14 15 39 4 25 11 45 17 45 5 0 9 14 9 31 0 17 7 37 15
45 8 9 15 29 15 45 0 16 5 29 10 29 6 0 10 11 10 25 0 14 3 25 8 25 10 0 35
81 27 88 -3 4 -11 0 -16 -8 -8 -12 -12 -12 -16 -2 -4 10 -162 12 -799 12
l-794 -1 0 -40z m1103 24 c-13 -2 -35 -2 -50 0 -16 2 -5 4 22 4 28 0 40 -2 28
-4z"/>
<path d="M3745 4243 c-55 -7 -75 -23 -75 -60 0 -21 -6 -36 -15 -39 -8 -4 -15
-19 -15 -34 0 -16 -4 -32 -10 -35 -5 -3 -10 -22 -10 -41 0 -19 -4 -34 -10 -34
-5 0 -10 -11 -10 -24 0 -14 -4 -27 -9 -30 -5 -4 -12 -24 -16 -46 -4 -22 -11
-42 -16 -46 -5 -3 -9 -16 -9 -29 0 -13 -4 -27 -10 -30 -5 -3 -12 -29 -16 -56
-4 -28 -13 -53 -20 -56 -9 -3 -14 -20 -14 -44 0 -21 -4 -39 -10 -39 -5 0 -10
-14 -10 -30 0 -17 -9 -47 -20 -67 -11 -21 -20 -45 -20 -55 0 -9 -4 -18 -10
-20 -5 -1 -11 -21 -13 -43 -3 -21 -10 -41 -16 -43 -6 -2 -11 -19 -11 -38 0
-19 -4 -34 -10 -34 -5 0 -10 -15 -10 -34 0 -21 -6 -36 -15 -40 -9 -3 -15 -18
-15 -35 0 -16 -4 -33 -10 -36 -5 -3 -10 -24 -10 -46 0 -21 -4 -39 -10 -39 -5
0 -10 -13 -10 -29 0 -16 -7 -36 -15 -45 -8 -8 -15 -31 -15 -50 0 -20 -4 -36
-10 -36 -5 0 -10 -13 -10 -29 0 -16 -6 -31 -15 -35 -10 -3 -15 -19 -15 -45 0
-22 -4 -43 -10 -46 -5 -3 -10 -17 -10 -31 0 -14 -7 -32 -15 -40 -8 -9 -15 -30
-15 -49 0 -18 -3 -35 -7 -37 -11 -4 -43 -101 -43 -126 0 -11 -4 -22 -9 -24 -5
-1 -11 -16 -14 -33 -4 -33 -11 -54 -32 -100 -7 -16 -15 -42 -18 -57 -3 -23 0
-27 27 -31 59 -10 531 -3 538 8 4 5 8 25 8 43 0 20 5 31 13 30 7 -2 13 12 15
37 2 22 8 44 13 49 5 6 9 27 9 48 0 21 5 38 10 38 6 0 10 20 10 45 0 25 5 45
10 45 6 0 10 15 10 33 0 34 21 60 59 72 12 3 21 10 21 14 0 4 10 7 22 8 11 1
24 7 28 14 4 6 13 8 19 5 6 -4 11 -2 11 3 0 6 9 11 20 11 11 0 20 5 20 10 0 6
14 10 30 10 17 0 30 5 30 10 0 6 10 10 23 10 12 0 31 7 41 15 11 8 28 15 38
15 10 0 18 5 18 10 0 6 14 10 30 10 17 0 30 5 30 10 0 6 18 10 39 10 22 0 41
4 43 9 2 5 18 12 36 16 25 5 32 3 32 -9 0 -9 7 -16 15 -16 11 0 15 -12 15 -49
0 -34 4 -51 15 -55 9 -3 15 -18 15 -35 0 -16 5 -33 10 -36 6 -3 10 -22 10 -41
0 -19 5 -34 10 -34 6 0 10 -12 10 -27 0 -16 7 -41 15 -57 8 -15 15 -41 15 -57
0 -16 4 -29 10 -29 5 0 12 -17 16 -37 4 -21 9 -42 13 -48 3 -5 6 -17 8 -25 1
-8 7 -31 14 -51 l11 -36 285 1 284 1 -6 40 c-4 22 -13 45 -21 51 -8 6 -14 25
-14 42 0 17 -4 34 -10 37 -5 3 -10 19 -10 36 0 16 -4 29 -10 29 -5 0 -10 11
-10 25 0 14 -4 33 -10 43 -13 24 -50 138 -50 157 0 8 -4 15 -9 15 -5 0 -13 25
-16 55 -4 30 -11 55 -16 55 -5 0 -9 14 -9 30 0 17 -4 30 -9 30 -5 0 -11 18
-15 40 -3 22 -11 40 -16 40 -6 0 -10 15 -10 34 l0 33 72 6 c39 3 74 10 77 14
3 4 40 9 81 11 41 2 77 7 78 13 2 5 7 7 10 5 4 -2 72 2 152 9 299 27 270 27
270 2 0 -12 -9 -29 -21 -37 -11 -8 -30 -31 -42 -50 -11 -19 -29 -42 -39 -51
-10 -9 -18 -26 -18 -39 0 -13 -8 -24 -20 -27 -11 -3 -20 -12 -20 -21 0 -8 -11
-25 -25 -38 -14 -13 -25 -33 -25 -44 0 -12 -5 -18 -10 -15 -6 3 -14 -4 -19
-17 -5 -13 -16 -30 -25 -37 -9 -7 -16 -20 -16 -27 0 -8 -4 -14 -10 -14 -5 0
-10 -6 -10 -14 0 -8 -7 -16 -15 -20 -8 -3 -15 -12 -15 -21 0 -8 -4 -15 -10
-15 -6 0 -10 -68 -10 -185 l0 -184 768 5 c422 4 772 6 778 7 8 0 14 57 18 186
3 102 8 202 11 221 l7 35 -432 -2 c-385 -2 -432 -1 -437 14 -4 9 1 19 10 25
10 5 17 16 17 23 0 8 5 15 10 15 6 0 10 6 10 13 0 7 11 24 25 39 14 15 25 31
25 36 0 6 7 12 15 16 8 3 15 13 15 22 0 9 11 27 24 39 13 12 27 32 31 43 3 12
10 22 15 22 5 0 12 9 15 21 4 11 20 33 36 50 16 16 29 34 29 40 0 18 715 -9
813 -30 23 -5 104 -13 180 -17 125 -6 137 -5 137 10 0 10 -7 24 -15 32 -8 9
-15 24 -15 35 0 10 -4 19 -10 19 -5 0 -10 12 -10 26 0 14 -4 23 -8 20 -5 -3
-21 23 -36 57 -15 34 -36 79 -47 100 -10 22 -19 45 -19 51 0 16 -144 26 -352
26 -77 0 -137 4 -134 9 5 8 -94 21 -166 21 -48 0 -53 11 -24 45 13 16 30 40
38 54 7 14 23 35 36 47 12 12 22 25 22 30 0 5 11 21 25 36 14 15 25 31 25 35
0 5 11 20 25 35 14 15 25 32 25 38 0 5 5 10 10 10 6 0 10 6 10 14 0 8 7 16 15
20 8 3 15 12 15 21 0 8 5 15 10 15 6 0 10 5 10 11 0 6 7 17 15 25 12 13 15 49
15 199 l0 183 -47 4 c-27 2 -50 0 -51 -4 -2 -5 -10 -4 -17 2 -10 8 -204 10
-685 8 -583 -3 -672 -5 -680 -18 -6 -9 -10 -101 -9 -214 0 -153 -2 -201 -12
-207 -8 -4 -10 -12 -5 -16 6 -6 285 -11 779 -13 10 0 17 -8 17 -20 0 -11 -4
-20 -10 -20 -5 0 -10 -5 -10 -11 0 -7 -11 -22 -25 -35 -14 -13 -25 -28 -25
-34 0 -6 -11 -21 -25 -34 -14 -13 -25 -28 -25 -34 0 -5 -11 -20 -25 -33 -13
-13 -25 -30 -25 -36 0 -7 -4 -13 -9 -13 -5 0 -12 -11 -15 -25 -4 -14 -11 -25
-16 -25 -6 0 -10 -7 -10 -15 0 -17 -30 -22 -154 -28 -49 -3 -91 -9 -95 -15 -3
-5 -67 -12 -141 -15 -211 -8 -340 -23 -340 -38 0 -5 -41 -9 -91 -9 -49 0 -88
-4 -85 -9 7 -11 -42 -21 -98 -21 -23 0 -48 -6 -54 -12 -7 -7 -31 -13 -52 -14
-37 0 -40 2 -40 27 0 15 -7 29 -15 33 -9 3 -15 19 -15 41 0 19 -4 35 -10 35
-5 0 -10 15 -10 33 0 17 -7 41 -15 51 -8 11 -15 32 -15 48 0 15 -4 28 -10 28
-5 0 -13 18 -16 40 -4 22 -10 40 -15 40 -5 0 -9 17 -9 39 0 22 -6 44 -15 51
-8 7 -15 24 -15 39 0 14 -7 35 -15 45 -8 11 -15 35 -15 53 0 18 -4 33 -10 33
-5 0 -10 13 -10 29 0 16 -7 34 -15 41 -8 7 -15 22 -15 34 -1 23 -33 122 -44
133 -3 3 -6 19 -6 34 0 17 -8 32 -25 43 -21 14 -63 16 -322 15 -164 -1 -311
-4 -328 -6z m2648 -10 c-7 -2 -21 -2 -30 0 -10 3 -4 5 12 5 17 0 24 -2 18 -5z
m195 0 c-15 -2 -42 -2 -60 0 -18 2 -6 4 27 4 33 0 48 -2 33 -4z m-2525 -520
c3 -26 10 -49 16 -51 6 -2 11 -16 11 -30 0 -15 7 -40 15 -56 8 -15 15 -46 15
-67 0 -22 5 -39 10 -39 6 0 10 -18 10 -39 0 -22 5 -43 10 -46 6 -3 10 -21 10
-40 0 -19 5 -37 10 -40 6 -3 10 -19 10 -35 0 -16 5 -32 10 -35 6 -3 10 -17 10
-31 0 -17 -5 -24 -19 -24 -11 0 -23 -4 -26 -10 -3 -5 -26 -10 -51 -10 -24 0
-44 -4 -44 -10 0 -5 -13 -10 -29 -10 -17 0 -33 -4 -36 -10 -3 -5 -22 -10 -41
-10 -19 0 -34 -4 -34 -10 0 -5 -13 -10 -30 -10 -28 0 -30 3 -30 35 0 19 5 35
10 35 6 0 10 13 10 29 0 16 7 45 15 64 8 20 15 50 15 66 0 16 4 32 9 35 5 3
12 26 15 51 4 25 11 43 17 40 5 -4 9 14 9 39 0 25 5 46 10 46 6 0 10 18 10 40
0 22 5 40 10 40 6 0 10 15 10 34 0 19 5 38 10 41 6 3 10 17 10 30 0 20 10 32
31 34 4 1 9 -20 12 -46z"/>
<path d="M6930 4234 c0 -8 4 -14 9 -14 5 0 12 -13 16 -30 4 -16 11 -30 16 -30
5 0 9 -8 9 -18 0 -10 7 -27 15 -38 8 -10 15 -27 15 -36 0 -10 4 -18 10 -18 5
0 12 -17 16 -37 4 -21 10 -40 13 -43 12 -10 71 -129 71 -144 0 -9 5 -16 10
-16 6 0 10 -7 10 -15 0 -8 5 -15 10 -15 6 0 10 -6 10 -13 0 -18 23 -67 32 -67
3 0 10 -15 13 -32 4 -18 18 -49 31 -70 13 -21 24 -41 24 -45 0 -12 54 -118 63
-121 4 -2 7 -12 7 -23 0 -10 5 -19 10 -19 6 0 10 -11 10 -25 0 -14 9 -34 20
-45 11 -11 20 -27 20 -35 0 -8 5 -15 10 -15 6 0 10 -11 10 -25 0 -14 5 -25 10
-25 6 0 10 -6 10 -13 0 -6 11 -33 25 -59 14 -26 25 -53 25 -61 0 -7 9 -23 20
-35 11 -12 20 -30 20 -42 0 -11 5 -20 10 -20 6 0 10 -9 10 -20 0 -11 5 -20 10
-20 6 0 10 -9 10 -19 0 -11 6 -21 13 -23 9 -4 13 -86 15 -357 2 -203 7 -349
12 -346 5 3 11 1 14 -4 10 -15 367 -2 383 14 11 11 13 80 13 347 -1 222 3 334
10 336 5 2 10 15 10 28 0 13 4 24 9 24 5 0 12 14 16 31 4 17 13 33 21 36 8 3
14 14 14 24 0 10 5 19 10 19 6 0 10 5 10 11 0 19 61 152 73 157 4 2 7 14 7 27
0 12 7 25 15 29 8 3 15 17 15 31 0 15 4 24 10 20 6 -3 10 3 10 14 0 11 5 23
10 26 6 3 10 14 10 25 0 10 7 20 15 24 8 3 15 14 15 25 0 11 5 23 10 26 6 3
10 15 10 26 0 11 7 22 15 25 8 4 15 16 15 29 0 13 7 25 15 29 8 3 15 16 15 29
0 14 7 30 15 37 8 7 15 23 15 36 0 13 5 24 10 24 6 0 10 7 10 15 0 8 5 15 10
15 6 0 10 9 10 19 0 11 5 23 10 26 6 3 10 15 10 26 0 10 4 19 10 19 5 0 12 11
16 25 3 13 12 29 20 36 8 6 14 22 14 35 0 13 5 24 11 24 5 0 15 14 20 30 6 17
15 30 20 30 5 0 9 13 9 29 0 16 6 31 15 35 8 3 15 15 15 26 0 11 5 20 10 20 6
0 9 3 8 8 -2 9 14 46 23 52 3 3 10 20 14 38 l7 32 -241 0 c-208 0 -241 -2
-241 -15 0 -8 -5 -15 -11 -15 -6 0 -9 -6 -6 -14 3 -8 -1 -20 -9 -26 -8 -7 -14
-23 -14 -37 0 -13 -7 -26 -15 -29 -8 -4 -15 -17 -15 -29 0 -13 -4 -26 -9 -29
-5 -3 -12 -18 -15 -32 -4 -15 -14 -33 -21 -41 -8 -8 -15 -25 -15 -39 0 -13 -4
-24 -10 -24 -5 0 -10 -11 -10 -24 0 -14 -7 -31 -15 -40 -8 -8 -15 -24 -15 -34
0 -31 -11 -52 -26 -52 -8 0 -14 -10 -14 -24 0 -14 -7 -31 -15 -40 -8 -8 -15
-28 -15 -45 0 -18 -5 -30 -11 -28 -7 1 -14 -14 -16 -33 -3 -19 -9 -39 -14 -44
-5 -6 -9 -18 -9 -28 0 -10 -7 -21 -15 -24 -8 -4 -15 -17 -15 -30 0 -15 -6 -24
-16 -24 -11 0 -15 6 -11 19 2 10 -6 40 -19 67 -13 27 -24 56 -24 65 0 8 -7 24
-15 35 -8 10 -15 27 -15 37 0 10 -7 25 -15 34 -9 8 -19 28 -22 44 -3 16 -9 29
-14 29 -5 0 -9 9 -9 20 0 11 -4 20 -10 20 -5 0 -10 6 -10 14 0 7 -7 27 -15 42
-8 16 -15 36 -15 44 0 8 -7 24 -15 34 -8 11 -15 27 -15 35 0 9 -11 38 -25 65
-14 27 -25 55 -25 63 0 7 -4 13 -10 13 -5 0 -10 11 -10 25 0 14 -4 25 -10 25
-5 0 -10 10 -10 23 0 45 -22 48 -321 46 -227 -1 -279 -4 -279 -15z"/>
<path d="M8863 4243 l-23 -4 0 -423 0 -423 -189 -6 c-115 -4 -197 -10 -208
-17 -17 -11 -83 -137 -83 -159 0 -6 -4 -11 -10 -11 -5 0 -10 -9 -10 -19 0 -11
-4 -22 -9 -26 -14 -8 -41 -65 -41 -87 0 -10 -4 -18 -10 -18 -5 0 -10 -8 -10
-17 0 -17 19 -18 285 -15 157 2 285 2 285 0 0 -2 3 -183 7 -403 3 -220 9 -404
13 -409 11 -11 1164 -15 1265 -4 43 4 84 13 89 18 6 6 19 10 29 10 24 0 73 27
112 62 16 16 33 28 38 28 4 0 7 9 7 20 0 11 6 19 13 18 7 -2 13 9 15 25 2 15
8 25 13 22 5 -4 9 9 9 28 0 19 7 40 15 47 13 10 15 54 15 276 0 169 -4 264
-10 264 -5 0 -10 9 -10 19 0 11 -4 23 -10 26 -5 3 -10 15 -10 26 0 10 -4 19
-10 19 -5 0 -10 4 -10 10 0 13 -57 70 -92 93 -15 9 -36 17 -48 17 -41 0 -11
49 41 65 26 8 69 53 69 71 0 7 6 14 14 17 7 3 17 23 21 44 4 21 12 44 18 52
18 21 20 410 2 444 -7 14 -16 44 -20 66 -4 23 -11 41 -16 41 -5 0 -9 9 -9 20
0 11 -4 20 -10 20 -5 0 -10 6 -10 13 0 15 -83 96 -118 114 -12 7 -50 15 -85
18 -34 4 -79 13 -99 20 -30 12 -144 14 -615 13 -318 0 -588 -3 -600 -5z m1017
-443 c0 -5 6 -10 14 -10 21 0 27 -42 25 -164 -2 -106 -3 -111 -32 -140 l-29
-31 -216 -5 c-164 -4 -222 -2 -237 8 -11 6 -14 12 -7 12 18 0 17 306 0 313
-10 4 -9 8 2 16 20 14 480 15 480 1z m45 -775 c12 -17 15 -49 13 -185 -3 -166
-3 -166 -30 -193 l-27 -27 -233 2 -233 3 -3 189 c-2 126 -6 194 -14 204 -23
28 16 32 264 30 234 -3 248 -4 263 -23z"/>
<path d="M11095 4243 c-11 -3 -24 -9 -29 -14 -6 -5 -29 -9 -52 -9 -23 0 -44
-5 -46 -10 -2 -6 -14 -12 -27 -15 -24 -4 -50 -24 -106 -80 -41 -41 -75 -116
-75 -165 0 -27 -5 -43 -15 -46 -13 -5 -15 -91 -15 -684 0 -498 3 -679 11 -682
7 -2 16 -33 21 -68 5 -39 14 -68 23 -73 8 -4 15 -17 15 -28 0 -20 50 -79 66
-79 5 0 16 -9 24 -20 8 -11 22 -20 32 -20 10 0 18 -4 18 -10 0 -5 11 -10 25
-10 14 0 25 -4 25 -9 0 -19 167 -26 600 -26 470 0 505 3 592 43 21 9 38 20 38
25 0 4 7 7 15 7 8 0 15 7 15 15 0 8 7 15 15 15 8 0 15 6 15 14 0 8 9 18 20 21
17 6 25 22 21 47 0 4 5 5 13 2 10 -4 16 8 21 45 4 28 11 51 16 51 13 0 12
1467 -1 1475 -5 3 -10 19 -10 34 0 16 -6 34 -14 40 -8 7 -17 23 -20 36 -4 14
-11 25 -17 25 -6 0 -7 5 -4 10 3 6 -1 10 -9 10 -9 0 -16 5 -16 11 0 15 -22 35
-48 43 -12 4 -20 12 -17 17 4 5 -3 9 -14 9 -11 0 -26 7 -35 15 -8 8 -27 15
-43 15 -16 0 -55 7 -86 15 -48 12 -135 15 -490 14 -238 -1 -441 -3 -452 -6z
m727 -483 c13 -26 15 -113 17 -543 2 -505 2 -513 -18 -536 -12 -13 -21 -28
-21 -33 0 -4 -104 -8 -231 -8 -225 0 -232 1 -250 22 -18 20 -19 48 -19 557 0
295 4 542 8 548 6 9 59 13 187 15 99 2 210 4 246 6 65 3 66 2 81 -28z"/>
<path d="M12500 4235 c0 -8 9 -19 19 -25 11 -5 22 -23 26 -40 4 -16 11 -30 16
-30 5 0 9 -6 9 -14 0 -8 7 -16 15 -20 8 -3 15 -13 15 -23 0 -10 11 -31 25 -47
14 -16 25 -38 25 -48 0 -11 5 -16 10 -13 6 4 13 -7 16 -24 4 -17 10 -31 14
-31 4 0 15 -16 26 -35 10 -19 22 -35 26 -35 5 0 8 -7 8 -15 0 -15 22 -54 45
-82 25 -31 51 -73 79 -130 6 -13 14 -23 19 -23 4 0 7 -9 7 -20 0 -11 4 -20 9
-20 5 0 19 -20 31 -45 12 -25 26 -45 30 -45 5 0 11 -13 15 -29 3 -16 13 -32
21 -35 8 -3 14 -15 14 -26 0 -11 4 -20 8 -20 5 0 15 -12 23 -27 8 -16 22 -37
32 -47 16 -18 22 -43 18 -74 -2 -12 -20 -37 -48 -67 -7 -8 -13 -18 -13 -24 0
-6 -4 -11 -10 -11 -5 0 -10 -9 -10 -20 0 -20 -8 -33 -41 -68 -9 -9 -20 -27
-24 -40 -3 -12 -17 -34 -31 -49 -13 -14 -24 -36 -24 -48 0 -13 -7 -25 -15 -29
-8 -3 -15 -12 -15 -20 0 -7 -7 -16 -15 -20 -8 -3 -15 -15 -15 -26 0 -11 -4
-20 -10 -20 -5 0 -10 -7 -10 -15 0 -8 -4 -15 -10 -15 -5 0 -10 -7 -10 -15 0
-8 -3 -15 -8 -15 -4 0 -15 -18 -25 -41 -18 -42 -30 -59 -59 -87 -10 -9 -18
-22 -18 -29 0 -18 -22 -56 -37 -66 -7 -4 -13 -17 -13 -28 0 -11 -5 -17 -10
-14 -6 4 -13 -7 -16 -24 -4 -17 -10 -31 -15 -31 -5 0 -9 -7 -9 -15 0 -7 -6
-18 -12 -22 -7 -4 -24 -30 -38 -58 -14 -27 -28 -52 -31 -55 -4 -3 -9 -14 -13
-25 -6 -20 -1 -20 292 -21 317 -1 321 0 322 49 0 10 7 20 15 23 8 4 15 13 15
21 0 8 8 27 18 41 11 15 25 42 33 60 8 17 17 32 21 32 5 0 8 9 8 20 0 11 5 20
10 20 6 0 10 11 10 25 0 14 7 28 15 31 8 4 15 15 15 26 0 10 4 17 9 14 5 -4
12 7 16 24 4 16 11 30 16 30 5 0 9 6 9 14 0 7 7 19 15 26 8 7 15 21 15 31 0
11 5 19 10 19 6 0 10 7 10 15 0 8 5 15 10 15 6 0 10 9 10 20 0 11 5 20 10 20
6 0 10 7 10 15 0 8 9 15 20 15 13 0 20 -7 20 -19 0 -11 7 -26 15 -35 8 -8 15
-24 15 -35 0 -12 6 -21 13 -21 6 0 21 -20 32 -45 11 -25 23 -45 27 -45 5 0 8
-9 8 -19 0 -11 7 -26 15 -34 7 -8 17 -26 21 -41 3 -14 10 -26 16 -26 5 0 14
-13 19 -30 6 -16 15 -30 20 -30 5 0 9 -9 9 -20 0 -11 5 -20 10 -20 6 0 10 -12
10 -26 0 -14 4 -23 10 -19 6 3 10 -3 10 -14 0 -12 5 -21 10 -21 6 0 10 -9 10
-20 0 -11 4 -20 10 -20 5 0 16 -14 22 -31 l13 -30 290 0 c160 1 301 1 315 1
15 0 20 3 13 8 -6 4 -15 20 -18 35 -4 15 -15 33 -25 40 -10 7 -22 25 -25 40
-4 14 -13 31 -21 38 -8 6 -14 18 -14 25 0 8 -4 14 -10 14 -5 0 -10 7 -10 15 0
7 -6 18 -13 22 -7 4 -21 25 -30 45 -10 20 -22 40 -27 43 -6 3 -10 14 -10 23 0
10 -9 24 -20 32 -11 8 -20 21 -20 30 0 9 -13 30 -30 48 -16 18 -33 44 -36 58
-3 13 -10 24 -15 24 -5 0 -9 7 -9 15 0 8 -4 15 -10 15 -5 0 -10 9 -10 19 0 10
-7 21 -15 25 -8 3 -15 12 -15 21 0 8 -4 15 -10 15 -5 0 -10 9 -10 20 0 11 -4
20 -10 20 -5 0 -10 9 -10 20 0 11 -4 20 -10 20 -5 0 -10 5 -10 11 0 7 -8 19
-17 28 -10 9 -27 34 -38 56 -11 22 -25 44 -32 48 -7 4 -13 15 -13 22 0 8 -4
15 -10 15 -5 0 -10 11 -10 25 0 16 -6 25 -15 25 -8 0 -15 6 -15 14 0 7 -7 19
-15 26 -22 18 -19 69 5 90 11 9 27 34 35 54 8 20 20 36 25 36 6 0 10 7 10 15
0 8 4 15 9 15 5 0 12 14 16 30 4 17 11 30 16 30 5 0 9 6 9 14 0 8 7 16 15 20
8 3 15 15 15 26 0 12 5 18 10 15 6 -3 10 3 10 13 0 11 7 25 15 32 8 7 15 21
15 32 0 10 7 21 15 24 8 4 15 12 15 20 0 8 3 14 8 14 7 0 12 8 42 66 8 16 24
38 35 49 11 11 21 27 23 35 2 8 8 17 13 18 5 2 9 10 9 18 0 8 5 14 10 14 6 0
10 9 10 20 0 11 5 20 10 20 6 0 10 9 10 20 0 11 5 20 10 20 6 0 10 7 10 15 0
8 4 15 9 15 10 0 34 38 47 73 3 9 10 17 15 17 5 0 9 7 9 15 0 14 18 54 30 65
15 14 40 61 40 75 0 13 -36 15 -290 15 l-290 0 -6 -25 c-3 -14 -12 -25 -18
-25 -7 0 -18 -17 -25 -37 -8 -21 -20 -43 -28 -51 -7 -7 -11 -18 -8 -23 4 -5 2
-9 -4 -9 -9 0 -41 -55 -41 -72 0 -5 -9 -18 -20 -30 -11 -12 -20 -29 -20 -39 0
-9 -7 -20 -16 -23 -10 -4 -14 -12 -10 -22 4 -11 -1 -22 -14 -31 -11 -8 -20
-21 -20 -29 0 -8 -4 -14 -10 -14 -5 0 -10 -9 -10 -20 0 -11 -7 -23 -15 -27 -9
-3 -15 -13 -13 -22 2 -9 -3 -23 -10 -31 -7 -8 -19 -24 -26 -34 -13 -19 -13
-19 -34 2 -12 12 -22 28 -22 35 0 8 -3 17 -7 21 -5 4 -8 11 -8 15 0 3 -10 17
-22 30 -12 13 -19 30 -16 39 4 9 2 13 -4 9 -6 -4 -14 4 -17 18 -4 14 -11 23
-16 20 -9 -5 -15 15 -11 38 1 4 -6 10 -14 13 -8 4 -15 14 -15 23 0 9 -9 27
-20 41 -11 14 -20 31 -20 38 0 6 -4 12 -10 12 -5 0 -10 9 -10 20 0 11 -4 20
-10 20 -5 0 -10 9 -10 20 0 11 -7 23 -15 26 -8 4 -15 17 -15 30 0 13 -5 24
-11 24 -5 0 -17 16 -25 35 l-14 35 -264 0 c-202 0 -266 -3 -269 -12 -4 -10 -6
-10 -6 0 -1 18 -71 16 -71 -3z"/>
</g>
</svg>
